<svg width="182" height="182" viewBox="0 0 182 182" fill="none" xmlns="http://www.w3.org/2000/svg">
<path d="M135.765 45.2548C110.771 20.2613 70.2485 20.2613 45.2549 45.2548C20.2613 70.2484 20.2614 110.771 45.2549 135.764C70.2485 160.758 110.771 160.758 135.765 135.764C160.758 110.771 160.758 70.2483 135.765 45.2548Z" fill="url(#paint0_linear)"/>
<path d="M135.765 45.254C146.987 56.4762 153.17 70.8291 154.315 85.5013C155.719 103.506 141.43 91.1586 116.295 116.294C96.1641 136.425 106.472 154.666 89.886 154.506C73.7155 154.349 57.5931 148.102 45.2549 135.764C20.2614 110.77 20.2614 70.2475 45.2549 45.254C70.2485 20.2604 110.771 20.2604 135.765 45.254Z" fill="#00C154"/>
<path d="M139.048 81.1964L83.2773 136.967L97.9845 151.674L152.371 94.5197L139.048 81.1964Z" fill="url(#paint1_linear)"/>
<path d="M135.765 45.254C146.987 56.4762 153.17 70.8291 154.315 85.5013C155.719 103.506 141.43 91.1586 116.295 116.294C96.1641 136.425 106.472 154.666 89.886 154.506C73.7155 154.349 57.5931 148.102 45.2549 135.764C20.2614 110.77 20.2614 70.2475 45.2549 45.254C70.2485 20.2604 110.771 20.2604 135.765 45.254Z" fill="url(#paint2_linear)"/>
<path d="M64.744 62.112C64.744 62.528 64.688 62.944 64.576 63.36C64.48 63.776 64.312 64.16 64.072 64.512C63.832 64.848 63.52 65.152 63.136 65.424C62.752 65.68 62.288 65.872 61.744 66V66.144C62.224 66.224 62.68 66.36 63.112 66.552C63.544 66.744 63.92 67.008 64.24 67.344C64.56 67.68 64.808 68.088 64.984 68.568C65.176 69.048 65.272 69.616 65.272 70.272C65.272 71.136 65.088 71.888 64.72 72.528C64.352 73.152 63.856 73.664 63.232 74.064C62.624 74.464 61.928 74.76 61.144 74.952C60.36 75.144 59.552 75.24 58.72 75.24C58.448 75.24 58.096 75.24 57.664 75.24C57.248 75.24 56.792 75.224 56.296 75.192C55.816 75.176 55.32 75.144 54.808 75.096C54.312 75.048 53.856 74.976 53.44 74.88V58.32C53.744 58.272 54.088 58.224 54.472 58.176C54.872 58.128 55.296 58.088 55.744 58.056C56.192 58.024 56.648 58 57.112 57.984C57.592 57.968 58.064 57.96 58.528 57.96C59.312 57.96 60.072 58.024 60.808 58.152C61.56 58.264 62.224 58.472 62.8 58.776C63.392 59.08 63.864 59.504 64.216 60.048C64.568 60.592 64.744 61.28 64.744 62.112ZM58.744 72.528C59.144 72.528 59.528 72.48 59.896 72.384C60.28 72.288 60.616 72.144 60.904 71.952C61.192 71.744 61.424 71.488 61.6 71.184C61.776 70.88 61.864 70.52 61.864 70.104C61.864 69.576 61.76 69.16 61.552 68.856C61.344 68.552 61.072 68.32 60.736 68.16C60.4 67.984 60.024 67.872 59.608 67.824C59.192 67.776 58.776 67.752 58.36 67.752H56.608V72.384C56.688 72.416 56.816 72.44 56.992 72.456C57.168 72.472 57.352 72.488 57.544 72.504C57.752 72.504 57.96 72.512 58.168 72.528C58.392 72.528 58.584 72.528 58.744 72.528ZM57.664 65.256C57.888 65.256 58.144 65.248 58.432 65.232C58.736 65.216 58.984 65.192 59.176 65.16C59.784 64.968 60.304 64.68 60.736 64.296C61.184 63.912 61.408 63.408 61.408 62.784C61.408 62.368 61.328 62.024 61.168 61.752C61.008 61.48 60.792 61.264 60.52 61.104C60.264 60.944 59.968 60.832 59.632 60.768C59.296 60.704 58.944 60.672 58.576 60.672C58.16 60.672 57.776 60.68 57.424 60.696C57.072 60.712 56.8 60.736 56.608 60.768V65.256H57.664ZM67.4757 63.696C68.1157 63.408 68.8757 63.184 69.7557 63.024C70.6357 62.848 71.5557 62.76 72.5157 62.76C73.3477 62.76 74.0437 62.864 74.6037 63.072C75.1637 63.264 75.6037 63.544 75.9237 63.912C76.2597 64.28 76.4917 64.72 76.6197 65.232C76.7637 65.744 76.8357 66.32 76.8357 66.96C76.8357 67.664 76.8117 68.376 76.7637 69.096C76.7157 69.8 76.6837 70.496 76.6677 71.184C76.6677 71.872 76.6917 72.544 76.7397 73.2C76.7877 73.84 76.9077 74.448 77.0997 75.024H74.5557L74.0517 73.368H73.9317C73.6117 73.864 73.1637 74.296 72.5877 74.664C72.0277 75.016 71.2997 75.192 70.4037 75.192C69.8437 75.192 69.3397 75.112 68.8917 74.952C68.4437 74.776 68.0597 74.536 67.7397 74.232C67.4197 73.912 67.1717 73.544 66.9957 73.128C66.8197 72.696 66.7317 72.216 66.7317 71.688C66.7317 70.952 66.8917 70.336 67.2117 69.84C67.5477 69.328 68.0197 68.92 68.6277 68.616C69.2517 68.296 69.9877 68.08 70.8357 67.968C71.6997 67.84 72.6597 67.8 73.7157 67.848C73.8277 66.952 73.7637 66.312 73.5237 65.928C73.2837 65.528 72.7477 65.328 71.9157 65.328C71.2917 65.328 70.6277 65.392 69.9237 65.52C69.2357 65.648 68.6677 65.816 68.2197 66.024L67.4757 63.696ZM71.4357 72.624C72.0597 72.624 72.5557 72.488 72.9237 72.216C73.2917 71.928 73.5637 71.624 73.7397 71.304V69.744C73.2437 69.696 72.7637 69.688 72.2997 69.72C71.8517 69.752 71.4517 69.824 71.0997 69.936C70.7477 70.048 70.4677 70.208 70.2597 70.416C70.0517 70.624 69.9477 70.888 69.9477 71.208C69.9477 71.656 70.0757 72.008 70.3317 72.264C70.6037 72.504 70.9717 72.624 71.4357 72.624ZM83.8939 70.128L81.4459 75H77.9419L81.0859 69.504L81.9019 68.784L80.6779 67.872L78.2059 63H81.5419L83.7739 67.872H84.8059V63H87.7819V68.112L88.6939 67.776L90.9499 63H94.2619L91.6459 67.872L90.7099 68.64L91.9339 69.6L94.8379 75H91.2619L88.8139 70.032H87.7819V75H84.8059V69.792L83.8939 70.128ZM103.127 70.272H99.2146V75H96.0946V63H99.2146V67.512H103.127V63H106.247V75H103.127V70.272ZM108.409 69C108.409 66.968 108.905 65.408 109.897 64.32C110.889 63.216 112.281 62.664 114.073 62.664C115.033 62.664 115.865 62.816 116.569 63.12C117.273 63.424 117.857 63.856 118.321 64.416C118.785 64.96 119.129 65.624 119.353 66.408C119.593 67.192 119.713 68.056 119.713 69C119.713 71.032 119.217 72.6 118.225 73.704C117.249 74.792 115.865 75.336 114.073 75.336C113.113 75.336 112.281 75.184 111.577 74.88C110.873 74.576 110.281 74.152 109.801 73.608C109.337 73.048 108.985 72.376 108.745 71.592C108.521 70.808 108.409 69.944 108.409 69ZM111.625 69C111.625 69.528 111.673 70.016 111.769 70.464C111.865 70.912 112.009 71.304 112.201 71.64C112.393 71.976 112.641 72.24 112.945 72.432C113.265 72.608 113.641 72.696 114.073 72.696C114.889 72.696 115.497 72.4 115.897 71.808C116.297 71.216 116.497 70.28 116.497 69C116.497 67.896 116.313 67.008 115.945 66.336C115.577 65.648 114.953 65.304 114.073 65.304C113.305 65.304 112.705 65.592 112.273 66.168C111.841 66.744 111.625 67.688 111.625 69ZM57.736 93.744L58.168 95.616H58.312L58.624 93.72L60.448 87H63.664L60.016 97.824C59.712 98.72 59.416 99.536 59.128 100.272C58.856 101.024 58.552 101.672 58.216 102.216C57.88 102.76 57.504 103.176 57.088 103.464C56.688 103.768 56.208 103.92 55.648 103.92C54.816 103.92 54.152 103.784 53.656 103.512L54.232 101.016C54.472 101.112 54.712 101.16 54.952 101.16C55.32 101.16 55.672 101 56.008 100.68C56.36 100.376 56.624 99.816 56.8 99L51.784 87H55.528L57.736 93.744ZM66.0769 94.032V91.848H67.5409C68.1009 91.848 68.5569 91.736 68.9089 91.512C69.2769 91.288 69.4609 90.992 69.4609 90.624C69.4609 90.192 69.3009 89.888 68.9809 89.712C68.6609 89.52 68.1729 89.424 67.5169 89.424C66.8929 89.424 66.3409 89.504 65.8609 89.664C65.3809 89.824 64.9969 89.992 64.7089 90.168L64.0369 87.792C64.5169 87.52 65.1489 87.288 65.9329 87.096C66.7329 86.888 67.5809 86.784 68.4769 86.784C69.8529 86.784 70.8769 87.04 71.5489 87.552C72.2369 88.064 72.5809 88.808 72.5809 89.784C72.5809 90.056 72.5409 90.336 72.4609 90.624C72.3969 90.896 72.2849 91.16 72.1249 91.416C71.9649 91.672 71.7649 91.904 71.5249 92.112C71.3009 92.304 71.0289 92.456 70.7089 92.568V92.664C71.5569 92.856 72.1569 93.2 72.5089 93.696C72.8609 94.176 73.0369 94.824 73.0369 95.64C73.0369 96.152 72.9329 96.632 72.7249 97.08C72.5169 97.512 72.1969 97.888 71.7649 98.208C71.3489 98.528 70.8209 98.784 70.1809 98.976C69.5409 99.168 68.7809 99.264 67.9009 99.264C67.0209 99.264 66.2529 99.176 65.5969 99C64.9569 98.808 64.4209 98.592 63.9889 98.352L64.6609 95.928C65.0289 96.136 65.4689 96.304 65.9809 96.432C66.5089 96.56 67.0929 96.624 67.7329 96.624C69.1889 96.624 69.9169 96.16 69.9169 95.232C69.9169 94.816 69.7249 94.512 69.3409 94.32C68.9729 94.128 68.2769 94.032 67.2529 94.032H66.0769ZM82.2203 94.272H78.3083V99H75.1883V87H78.3083V91.512H82.2203V87H85.3403V99H82.2203V94.272ZM88.0069 87.696C88.6469 87.408 89.4069 87.184 90.2869 87.024C91.1669 86.848 92.0869 86.76 93.0469 86.76C93.8789 86.76 94.5749 86.864 95.1349 87.072C95.6949 87.264 96.1349 87.544 96.4549 87.912C96.7909 88.28 97.0229 88.72 97.1509 89.232C97.2949 89.744 97.3669 90.32 97.3669 90.96C97.3669 91.664 97.3429 92.376 97.2949 93.096C97.2469 93.8 97.2149 94.496 97.1989 95.184C97.1989 95.872 97.2229 96.544 97.2709 97.2C97.3189 97.84 97.4389 98.448 97.6309 99.024H95.0869L94.5829 97.368H94.4629C94.1429 97.864 93.6949 98.296 93.1189 98.664C92.5589 99.016 91.8309 99.192 90.9349 99.192C90.3749 99.192 89.8709 99.112 89.4229 98.952C88.9749 98.776 88.5909 98.536 88.2709 98.232C87.9509 97.912 87.7029 97.544 87.5269 97.128C87.3509 96.696 87.2629 96.216 87.2629 95.688C87.2629 94.952 87.4229 94.336 87.7429 93.84C88.0789 93.328 88.5509 92.92 89.1589 92.616C89.7829 92.296 90.5189 92.08 91.3669 91.968C92.2309 91.84 93.1909 91.8 94.2469 91.848C94.3589 90.952 94.2949 90.312 94.0549 89.928C93.8149 89.528 93.2789 89.328 92.4469 89.328C91.8229 89.328 91.1589 89.392 90.4549 89.52C89.7669 89.648 89.1989 89.816 88.7509 90.024L88.0069 87.696ZM91.9669 96.624C92.5909 96.624 93.0869 96.488 93.4549 96.216C93.8229 95.928 94.0949 95.624 94.2709 95.304V93.744C93.7749 93.696 93.2949 93.688 92.8309 93.72C92.3829 93.752 91.9829 93.824 91.6309 93.936C91.2789 94.048 90.9989 94.208 90.7909 94.416C90.5829 94.624 90.4789 94.888 90.4789 95.208C90.4789 95.656 90.6069 96.008 90.8629 96.264C91.1349 96.504 91.5029 96.624 91.9669 96.624ZM108.625 89.76H105.241V99H102.025V89.76H98.6412V87H108.625V89.76ZM113.136 96.384C113.616 96.48 114.072 96.528 114.504 96.528C115.272 96.528 115.824 96.4 116.16 96.144C116.512 95.872 116.688 95.456 116.688 94.896C116.688 93.856 115.984 93.336 114.576 93.336C114.048 93.336 113.568 93.392 113.136 93.504V96.384ZM113.136 91.272C113.52 91.208 113.904 91.168 114.288 91.152C114.688 91.12 115.048 91.104 115.368 91.104C116.2 91.104 116.904 91.2 117.48 91.392C118.056 91.568 118.52 91.824 118.872 92.16C119.24 92.496 119.504 92.896 119.664 93.36C119.824 93.808 119.904 94.296 119.904 94.824C119.904 96.28 119.472 97.368 118.608 98.088C117.744 98.808 116.28 99.168 114.216 99.168C113.304 99.168 112.512 99.152 111.84 99.12C111.184 99.088 110.576 99.048 110.016 99V87H113.136V91.272Z" fill="white"/>
<defs>
<linearGradient id="paint0_linear" x1="136.548" y1="134.968" x2="44.4719" y2="46.0514" gradientUnits="userSpaceOnUse">
<stop offset="0.0726" stop-color="white" stop-opacity="0"/>
<stop offset="0.1788"/>
</linearGradient>
<linearGradient id="paint1_linear" x1="125.494" y1="123.18" x2="110.535" y2="108.734" gradientUnits="userSpaceOnUse">
<stop stop-color="#9C9C9C"/>
<stop offset="0.5419" stop-color="white"/>
</linearGradient>
<linearGradient id="paint2_linear" x1="124.679" y1="125.899" x2="46.0454" y2="44.4713" gradientUnits="userSpaceOnUse">
<stop stop-color="#D15C4D"/>
<stop offset="0.324" stop-color="#F86C59"/>
</linearGradient>
</defs>
</svg>
