<svg width="182" height="182" viewBox="0 0 182 182" fill="none" xmlns="http://www.w3.org/2000/svg">
<path d="M135.764 135.764C160.758 110.771 160.758 70.2484 135.764 45.2548C110.771 20.2612 70.2484 20.2612 45.2548 45.2548C20.2613 70.2484 20.2613 110.771 45.2548 135.764C70.2484 160.758 110.771 160.758 135.764 135.764Z" fill="url(#paint0_linear)"/>
<path d="M135.765 135.764C124.543 146.987 110.19 153.17 95.5179 154.315C77.5129 155.719 89.8607 141.43 64.7253 116.295C44.5944 96.1639 26.3528 106.472 26.5135 89.8859C26.6701 73.7154 32.9175 57.5929 45.2556 45.2548C70.2492 20.2613 110.772 20.2613 135.765 45.2548C160.759 70.2484 160.759 110.771 135.765 135.764Z" fill="#00C154"/>
<path d="M99.8228 139.048L44.052 83.2771L29.3448 97.9842L86.4994 152.371L99.8228 139.048Z" fill="url(#paint1_linear)"/>
<path d="M135.765 135.764C124.543 146.987 110.19 153.17 95.5179 154.315C77.5129 155.719 89.8607 141.43 64.7253 116.295C44.5944 96.1639 26.3528 106.472 26.5135 89.8859C26.6701 73.7154 32.9175 57.5929 45.2556 45.2548C70.2492 20.2613 110.772 20.2613 135.765 45.2548C160.759 70.2484 160.759 110.771 135.765 135.764Z" fill="url(#paint2_linear)"/>
<path d="M82.168 62.04C82.168 62.44 82.104 62.848 81.976 63.264C81.848 63.68 81.656 64.072 81.4 64.44C81.144 64.792 80.816 65.104 80.416 65.376C80.016 65.648 79.544 65.856 79 66V66.096C79.48 66.176 79.936 66.312 80.368 66.504C80.816 66.696 81.208 66.96 81.544 67.296C81.88 67.632 82.152 68.04 82.36 68.52C82.568 69 82.672 69.568 82.672 70.224C82.672 71.088 82.488 71.84 82.12 72.48C81.768 73.104 81.296 73.616 80.704 74.016C80.128 74.416 79.464 74.712 78.712 74.904C77.96 75.096 77.192 75.192 76.408 75.192C76.136 75.192 75.816 75.192 75.448 75.192C75.08 75.192 74.696 75.176 74.296 75.144C73.896 75.128 73.496 75.096 73.096 75.048C72.696 75.016 72.344 74.96 72.04 74.88V58.344C72.632 58.248 73.32 58.168 74.104 58.104C74.888 58.04 75.744 58.008 76.672 58.008C77.296 58.008 77.928 58.064 78.568 58.176C79.224 58.272 79.816 58.472 80.344 58.776C80.872 59.064 81.304 59.472 81.64 60C81.992 60.528 82.168 61.208 82.168 62.04ZM76.6 73.464C77.112 73.464 77.608 73.408 78.088 73.296C78.568 73.168 78.992 72.976 79.36 72.72C79.728 72.448 80.016 72.12 80.224 71.736C80.448 71.352 80.56 70.896 80.56 70.368C80.56 69.712 80.424 69.184 80.152 68.784C79.896 68.384 79.552 68.072 79.12 67.848C78.704 67.624 78.232 67.472 77.704 67.392C77.176 67.312 76.648 67.272 76.12 67.272H74.032V73.296C74.144 73.328 74.304 73.352 74.512 73.368C74.72 73.384 74.944 73.4 75.184 73.416C75.424 73.432 75.672 73.448 75.928 73.464C76.184 73.464 76.408 73.464 76.6 73.464ZM75.28 65.592C75.552 65.592 75.88 65.584 76.264 65.568C76.648 65.552 76.968 65.528 77.224 65.496C77.608 65.368 77.968 65.216 78.304 65.04C78.64 64.848 78.936 64.632 79.192 64.392C79.464 64.136 79.672 63.848 79.816 63.528C79.976 63.192 80.056 62.832 80.056 62.448C80.056 61.92 79.952 61.488 79.744 61.152C79.552 60.8 79.288 60.52 78.952 60.312C78.616 60.104 78.232 59.96 77.8 59.88C77.368 59.784 76.928 59.736 76.48 59.736C75.952 59.736 75.464 59.752 75.016 59.784C74.584 59.8 74.256 59.832 74.032 59.88V65.592H75.28ZM85.6716 63.888C86.2796 63.52 86.9836 63.248 87.7836 63.072C88.5996 62.896 89.4476 62.808 90.3276 62.808C91.1596 62.808 91.8236 62.92 92.3196 63.144C92.8316 63.368 93.2156 63.664 93.4716 64.032C93.7436 64.384 93.9196 64.776 93.9996 65.208C94.0956 65.64 94.1436 66.072 94.1436 66.504C94.1436 67.464 94.1196 68.4 94.0716 69.312C94.0236 70.224 93.9996 71.088 93.9996 71.904C93.9996 72.496 94.0236 73.056 94.0716 73.584C94.1196 74.112 94.2076 74.6 94.3356 75.048H92.9196L92.4156 73.368H92.2956C92.1516 73.592 91.9676 73.816 91.7436 74.04C91.5356 74.248 91.2796 74.44 90.9756 74.616C90.6716 74.776 90.3196 74.912 89.9196 75.024C89.5196 75.136 89.0636 75.192 88.5516 75.192C88.0396 75.192 87.5596 75.112 87.1116 74.952C86.6796 74.792 86.3036 74.568 85.9836 74.28C85.6636 73.976 85.4076 73.616 85.2156 73.2C85.0396 72.784 84.9516 72.312 84.9516 71.784C84.9516 71.08 85.0956 70.496 85.3836 70.032C85.6716 69.552 86.0716 69.176 86.5836 68.904C87.1116 68.616 87.7356 68.416 88.4556 68.304C89.1916 68.176 89.9996 68.112 90.8796 68.112C91.1036 68.112 91.3196 68.112 91.5276 68.112C91.7516 68.112 91.9756 68.128 92.1996 68.16C92.2476 67.68 92.2716 67.248 92.2716 66.864C92.2716 65.984 92.0956 65.368 91.7436 65.016C91.3916 64.664 90.7516 64.488 89.8236 64.488C89.5516 64.488 89.2556 64.512 88.9356 64.56C88.6316 64.592 88.3116 64.648 87.9756 64.728C87.6556 64.792 87.3436 64.88 87.0396 64.992C86.7516 65.088 86.4956 65.2 86.2716 65.328L85.6716 63.888ZM89.0796 73.512C89.5276 73.512 89.9276 73.456 90.2796 73.344C90.6316 73.216 90.9356 73.064 91.1916 72.888C91.4476 72.696 91.6556 72.488 91.8156 72.264C91.9916 72.04 92.1196 71.824 92.1996 71.616V69.624C91.9756 69.608 91.7436 69.6 91.5036 69.6C91.2796 69.584 91.0556 69.576 90.8316 69.576C90.3356 69.576 89.8476 69.608 89.3676 69.672C88.9036 69.72 88.4876 69.824 88.1196 69.984C87.7676 70.128 87.4796 70.336 87.2556 70.608C87.0476 70.864 86.9436 71.192 86.9436 71.592C86.9436 72.152 87.1436 72.616 87.5436 72.984C87.9436 73.336 88.4556 73.512 89.0796 73.512ZM101.682 69.696L98.1539 75H95.9459L99.7379 69.504L100.554 68.784L99.3299 67.872L96.2099 63H98.2499L101.562 68.184H102.81V63H104.682V68.424L105.81 68.088L109.146 63H111.162L107.898 67.872L106.962 68.64L108.186 69.6L111.738 75H109.458L105.93 69.6H104.682V75H102.81V69.36L101.682 69.696ZM120.934 69.696H115.51V75H113.59V63H115.51V68.016H120.934V63H122.854V75H120.934V69.696ZM125.879 69C125.879 66.968 126.327 65.416 127.223 64.344C128.135 63.256 129.439 62.712 131.135 62.712C132.031 62.712 132.807 62.864 133.463 63.168C134.135 63.456 134.687 63.88 135.119 64.44C135.551 64.984 135.871 65.648 136.079 66.432C136.287 67.2 136.391 68.056 136.391 69C136.391 71.032 135.935 72.592 135.023 73.68C134.127 74.752 132.831 75.288 131.135 75.288C130.239 75.288 129.455 75.144 128.783 74.856C128.127 74.552 127.583 74.128 127.151 73.584C126.719 73.024 126.399 72.36 126.191 71.592C125.983 70.808 125.879 69.944 125.879 69ZM127.871 69C127.871 69.608 127.927 70.192 128.039 70.752C128.167 71.312 128.359 71.8 128.615 72.216C128.871 72.632 129.207 72.968 129.623 73.224C130.039 73.48 130.543 73.608 131.135 73.608C133.311 73.624 134.399 72.088 134.399 69C134.399 68.376 134.335 67.784 134.207 67.224C134.095 66.664 133.911 66.176 133.655 65.76C133.399 65.344 133.063 65.016 132.647 64.776C132.231 64.52 131.727 64.392 131.135 64.392C128.959 64.376 127.871 65.912 127.871 69ZM75.376 92.776L76.048 95.08H76.168L76.696 92.752L79.024 85H80.968L77.416 95.776C77.144 96.56 76.872 97.32 76.6 98.056C76.344 98.792 76.056 99.448 75.736 100.024C75.416 100.6 75.056 101.056 74.656 101.392C74.256 101.744 73.792 101.92 73.264 101.92C72.688 101.92 72.216 101.84 71.848 101.68L72.184 100.024C72.392 100.104 72.592 100.144 72.784 100.144C73.232 100.144 73.664 99.904 74.08 99.424C74.496 98.96 74.84 98.152 75.112 97L70.288 85H72.496L75.376 92.776ZM84.1797 91.648V90.088H85.8597C86.1477 90.088 86.4277 90.04 86.6997 89.944C86.9877 89.848 87.2437 89.72 87.4677 89.56C87.6917 89.384 87.8677 89.184 87.9957 88.96C88.1397 88.72 88.2117 88.472 88.2117 88.216C88.2117 87.592 87.9957 87.152 87.5637 86.896C87.1317 86.64 86.4837 86.512 85.6197 86.512C84.9957 86.512 84.4197 86.608 83.8917 86.8C83.3797 86.992 82.9797 87.176 82.6917 87.352L82.1397 85.864C82.6197 85.592 83.1797 85.352 83.8197 85.144C84.4757 84.936 85.2517 84.832 86.1477 84.832C88.8037 84.832 90.1317 85.816 90.1317 87.784C90.1317 88.344 89.9477 88.896 89.5797 89.44C89.2277 89.968 88.7157 90.344 88.0437 90.568V90.664C88.9877 90.84 89.6437 91.176 90.0117 91.672C90.3957 92.168 90.5877 92.824 90.5877 93.64C90.5877 94.152 90.4837 94.624 90.2757 95.056C90.0677 95.488 89.7557 95.864 89.3397 96.184C88.9237 96.504 88.3957 96.76 87.7557 96.952C87.1317 97.128 86.4037 97.216 85.5717 97.216C84.7557 97.216 84.0757 97.144 83.5317 97C83.0037 96.856 82.5237 96.68 82.0917 96.472L82.6437 94.888C83.0117 95.096 83.4517 95.256 83.9637 95.368C84.4917 95.48 85.0597 95.536 85.6677 95.536C86.6437 95.536 87.3877 95.368 87.8997 95.032C88.4117 94.696 88.6677 94.184 88.6677 93.496C88.6677 92.92 88.4277 92.472 87.9477 92.152C87.4677 91.816 86.6757 91.648 85.5717 91.648H84.1797ZM100.965 91.696H95.5414V97H93.6214V85H95.5414V90.016H100.965V85H102.885V97H100.965V91.696ZM106.39 85.888C106.998 85.52 107.702 85.248 108.502 85.072C109.318 84.896 110.166 84.808 111.046 84.808C111.878 84.808 112.542 84.92 113.038 85.144C113.55 85.368 113.934 85.664 114.19 86.032C114.462 86.384 114.638 86.776 114.718 87.208C114.814 87.64 114.862 88.072 114.862 88.504C114.862 89.464 114.838 90.4 114.79 91.312C114.742 92.224 114.718 93.088 114.718 93.904C114.718 94.496 114.742 95.056 114.79 95.584C114.838 96.112 114.926 96.6 115.054 97.048H113.638L113.134 95.368H113.014C112.87 95.592 112.686 95.816 112.462 96.04C112.254 96.248 111.998 96.44 111.694 96.616C111.39 96.776 111.038 96.912 110.638 97.024C110.238 97.136 109.782 97.192 109.27 97.192C108.758 97.192 108.278 97.112 107.83 96.952C107.398 96.792 107.022 96.568 106.702 96.28C106.382 95.976 106.126 95.616 105.934 95.2C105.758 94.784 105.67 94.312 105.67 93.784C105.67 93.08 105.814 92.496 106.102 92.032C106.39 91.552 106.79 91.176 107.302 90.904C107.83 90.616 108.454 90.416 109.174 90.304C109.91 90.176 110.718 90.112 111.598 90.112C111.822 90.112 112.038 90.112 112.246 90.112C112.47 90.112 112.694 90.128 112.918 90.16C112.966 89.68 112.99 89.248 112.99 88.864C112.99 87.984 112.814 87.368 112.462 87.016C112.11 86.664 111.47 86.488 110.542 86.488C110.27 86.488 109.974 86.512 109.654 86.56C109.35 86.592 109.03 86.648 108.694 86.728C108.374 86.792 108.062 86.88 107.758 86.992C107.47 87.088 107.214 87.2 106.99 87.328L106.39 85.888ZM109.798 95.512C110.246 95.512 110.646 95.456 110.998 95.344C111.35 95.216 111.654 95.064 111.91 94.888C112.166 94.696 112.374 94.488 112.534 94.264C112.71 94.04 112.838 93.824 112.918 93.616V91.624C112.694 91.608 112.462 91.6 112.222 91.6C111.998 91.584 111.774 91.576 111.55 91.576C111.054 91.576 110.566 91.608 110.086 91.672C109.622 91.72 109.206 91.824 108.838 91.984C108.486 92.128 108.198 92.336 107.974 92.608C107.766 92.864 107.662 93.192 107.662 93.592C107.662 94.152 107.862 94.616 108.262 94.984C108.662 95.336 109.174 95.512 109.798 95.512ZM126.145 86.68H122.377V97H120.457V86.68H116.689V85H126.145V86.68ZM129.971 95.32C130.563 95.416 131.131 95.464 131.675 95.464C132.683 95.464 133.427 95.272 133.907 94.888C134.387 94.488 134.627 93.928 134.627 93.208C134.627 92.568 134.395 92.04 133.931 91.624C133.467 91.208 132.739 91 131.747 91C131.475 91 131.179 91.008 130.859 91.024C130.539 91.04 130.243 91.088 129.971 91.168V95.32ZM129.971 89.584C130.355 89.52 130.723 89.48 131.075 89.464C131.427 89.432 131.763 89.416 132.083 89.416C132.915 89.416 133.619 89.512 134.195 89.704C134.771 89.88 135.235 90.128 135.587 90.448C135.955 90.768 136.219 91.152 136.379 91.6C136.539 92.032 136.619 92.496 136.619 92.992C136.619 94.448 136.179 95.504 135.299 96.16C134.435 96.816 133.083 97.144 131.243 97.144C130.219 97.144 129.155 97.096 128.051 97V85H129.971V89.584Z" fill="white"/>
<defs>
<linearGradient id="paint0_linear" x1="46.0513" y1="136.548" x2="134.968" y2="44.4718" gradientUnits="userSpaceOnUse">
<stop offset="0.0726" stop-color="white" stop-opacity="0"/>
<stop offset="0.1788"/>
</linearGradient>
<linearGradient id="paint1_linear" x1="57.8392" y1="125.494" x2="72.2851" y2="110.535" gradientUnits="userSpaceOnUse">
<stop stop-color="#9C9C9C"/>
<stop offset="0.5419" stop-color="white"/>
</linearGradient>
<linearGradient id="paint2_linear" x1="55.12" y1="124.679" x2="136.548" y2="46.0453" gradientUnits="userSpaceOnUse">
<stop stop-color="#D15C4D"/>
<stop offset="0.324" stop-color="#F86C59"/>
</linearGradient>
</defs>
</svg>
