<svg width="453.77" height="154.71" xmlns="http://www.w3.org/2000/svg">
 <defs>
  <style>.cls-1{fill:#1d1d1b;}</style>
 </defs>
 <title>Logo 01</title>
 <g>
  <title>background</title>
  <rect fill="none" id="canvas_background" height="402" width="582" y="-1" x="-1"/>
 </g>
 <g>
  <title>Layer 1</title>
  <path id="svg_1" d="m72.450003,100.260003a36.33,36.33 0 0 0 5.32,0q2.7,-0.19 4.26,-0.15c1,0 1.48,0.23 1.35,0.58s-1.26,1.05 -3.39,2.08l-5.08,2.57a23.73,23.73 0 0 1 -6.14,2.08a21.32,21.32 0 0 1 -7.45,0a25.19,25.19 0 0 1 -9,-3.63a30.63,30.63 0 0 1 -5.8,-4.64q-2.91,-2.91 -5.71,-6.29t-5.52,-7.12q-2.7,-3.72 -5.13,-7.11t-4.54,-6.24a37,37 0 0 0 -4,-4.64l-1.81,0q-0.19,2.13 -0.19,3.87c0,1.16 -0.08,2.13 -0.15,2.9c-0.13,2.2 -0.22,4.84 -0.29,7.94s-0.19,6.14 -0.38,9.14a80.84,80.84 0 0 1 -0.92,8.18q-0.63,3.68 -1.79,4.93a8.79,8.79 0 0 1 -5.13,2.81a14.45,14.45 0 0 1 -5.61,-0.58c-1.16,-0.33 -2.05,-0.59 -2.66,-0.78a10,10 0 0 1 -1.41,-0.53a1.17,1.17 0 0 1 -0.58,-0.48a1.83,1.83 0 0 1 -0.09,-0.63a0.48,0.48 0 0 1 0.24,-0.44a2.07,2.07 0 0 1 0.58,-0.24a3.74,3.74 0 0 0 0.72,-0.29a2.21,2.21 0 0 0 0.78,-0.78a13.17,13.17 0 0 0 1.45,-4.45a53.32,53.32 0 0 0 0.77,-7.35c0,-0.71 0,-1.93 0.1,-3.68s0.15,-3.8 0.24,-6.19s0.2,-5 0.29,-7.84s0.21,-5.7 0.34,-8.61c-0.71,-0.38 -1.34,-0.75 -1.88,-1.11a9.77,9.77 0 0 0 -1.89,-0.92c-1.68,-0.64 -2.44,-1.45 -2.28,-2.42s0.92,-1.61 2.28,-1.93l2.18,-0.49c0.54,-0.13 1.17,-0.25 1.88,-0.38q0.2,-5.52 0.39,-10.11t0.39,-6.92q0.28,-4.06 0.63,-8.23c0.22,-2.77 0.37,-5.19 0.43,-7.25a5.49,5.49 0 0 1 -1.4,-2.08a14.17,14.17 0 0 1 -0.78,-2.19a5.93,5.93 0 0 1 0,-3.68a4.42,4.42 0 0 0 -1.84,-1.26c-0.13,0 -0.26,-0.14 -0.38,-0.43a1.15,1.15 0 0 1 0,-0.87a1.6,1.6 0 0 1 0.77,-0.76a3.38,3.38 0 0 1 2,-0.29l0.62,0a2.08,2.08 0 0 1 0.63,0.09a38.59,38.59 0 0 1 4.21,-4.84a33.93,33.93 0 0 1 5.52,-4.35a29.17,29.17 0 0 1 6.63,-3.1a22.68,22.68 0 0 1 7.54,-1.06c2.84,0.06 5.63,0.21 8.37,0.43a35.15,35.15 0 0 1 7.74,1.5a20.53,20.53 0 0 1 6.63,3.58a17.89,17.89 0 0 1 4.94,6.78a52.89,52.89 0 0 1 3.24,9.48a44.75,44.75 0 0 1 1.25,10a32.89,32.89 0 0 1 -1.25,9.53a20.37,20.37 0 0 1 -4.41,8a57.24,57.24 0 0 1 -9.53,8.56a53.16,53.16 0 0 1 -12.72,6.82c0.58,0.71 1.16,1.47 1.74,2.27s1.23,1.66 1.94,2.57q4.35,6.09 8.9,11.61a116.85,116.85 0 0 0 8.85,9.67a55.5,55.5 0 0 0 8.18,6.68a14.84,14.84 0 0 0 6.81,2.71zm-41.83,-93.56a19.67,19.67 0 0 0 -3,1.74q-1.61,1.18 -3.55,2.66t-3.87,3.24q-1.93,1.74 -3.68,3.58a14.83,14.83 0 0 1 2.61,4.55a32.09,32.09 0 0 1 1.5,5.51a44.37,44.37 0 0 1 0.68,5.86c0.1,2 0.11,3.82 0,5.56s-0.26,4 -0.39,7s-0.29,6.18 -0.48,9.53a17.37,17.37 0 0 1 4.06,0.3a41.7,41.7 0 0 0 7,-3.1a51.15,51.15 0 0 0 6.63,-4.4a45.41,45.41 0 0 0 5.66,-5.28a26.8,26.8 0 0 0 4.06,-5.9a18,18 0 0 0 1.84,-8a34.26,34.26 0 0 0 -1,-8.22a38.82,38.82 0 0 0 -2.47,-7.21a53.12,53.12 0 0 0 -2.56,-5a7.25,7.25 0 0 0 -2.61,-2.61a8.59,8.59 0 0 0 -3.29,-1.06a12.78,12.78 0 0 0 -3.63,0.14a14,14 0 0 0 -3.51,1.11z" class="cls-1"/>
  <path id="svg_2" d="m157.010003,83.040003a4.41,4.41 0 0 1 0.15,1.83a9,9 0 0 1 -1.5,2.52a34.19,34.19 0 0 1 -7.5,7a73.84,73.84 0 0 1 -10.94,6.38a81.33,81.33 0 0 1 -12.53,4.79a53.29,53.29 0 0 1 -12.28,2.18a27.94,27.94 0 0 1 -11.71,-1.74a30.23,30.23 0 0 1 -8.76,-5.32a35.41,35.41 0 0 1 -6.24,-7.16a67.7,67.7 0 0 1 -4.16,-7.26a44.17,44.17 0 0 1 -4,-12.82a57.14,57.14 0 0 1 -0.14,-16.11l-0.53,-0.34a2.46,2.46 0 0 1 -0.44,-0.34a3.73,3.73 0 0 0 -0.53,-0.72c-0.16,-0.16 -0.23,-0.28 -0.19,-0.34s0.2,-0.13 0.53,-0.2l1.55,-0.29a75.13,75.13 0 0 1 3.77,-14.17a95.34,95.34 0 0 1 7.35,-15.34a75.78,75.78 0 0 1 9.63,-13.59a49.56,49.56 0 0 1 9,-7.93a23.64,23.64 0 0 1 7.45,-3.49a10.5,10.5 0 0 1 4.88,-0.24q8.61,2.52 15.34,4.89t9.53,4.59a2.4,2.4 0 0 1 1.26,2.28a5.13,5.13 0 0 1 -1.26,2.46a2.45,2.45 0 0 1 -1.74,0.78a11,11 0 0 1 -2.47,-0.1a18.8,18.8 0 0 1 -2.61,-0.58a17.94,17.94 0 0 1 -2,-0.68c-0.52,-0.25 -1.09,-0.56 -1.7,-0.92a6.47,6.47 0 0 0 -2.32,-0.72a8.65,8.65 0 0 0 -3.39,0.34a17.14,17.14 0 0 0 -4.78,2.37a96.62,96.62 0 0 0 -11,8a63.19,63.19 0 0 0 -8.56,8.8a55.26,55.26 0 0 0 -6.29,10a58.41,58.41 0 0 0 -4.16,11.42q5.32,-0.3 10.93,-0.39l10.36,-0.15q4.74,0 8.08,0c2.22,0 3.63,0 4.21,-0.1a6.81,6.81 0 0 0 2.32,-0.49q0.87,-0.37 1.5,-0.72c0.42,-0.23 0.82,-0.44 1.21,-0.63a3.76,3.76 0 0 1 1.64,-0.29c0.52,0 1.23,0 2.13,-0.1a11.32,11.32 0 0 1 2.56,0.1a3.2,3.2 0 0 1 1.89,0.92c0.45,0.48 0.48,1.24 0.1,2.27a16.49,16.49 0 0 0 -0.83,2.62a8.8,8.8 0 0 1 -1.25,2.85a8.08,8.08 0 0 1 -2.76,2.47a15,15 0 0 1 -5.32,1.54q-2.32,0.3 -5.52,0.63t-6.72,0.68c-2.36,0.23 -4.76,0.4 -7.21,0.53s-4.77,0.2 -7,0.2a50.33,50.33 0 0 1 -6.09,-0.39a28.75,28.75 0 0 1 -6.19,-1.45a14.16,14.16 0 0 0 -0.25,1.93a15.24,15.24 0 0 1 -0.24,2a58.75,58.75 0 0 0 0.24,11.85a30.24,30.24 0 0 0 3.11,10.47a16.41,16.41 0 0 0 6.63,6.87q4.26,2.37 10.83,1.11a49.41,49.41 0 0 0 11.08,-3.39a67.2,67.2 0 0 0 8.71,-4.59a46.08,46.08 0 0 0 6.19,-4.6a40,40 0 0 0 3.63,-3.58a29.21,29.21 0 0 0 2.81,-3.72a21.92,21.92 0 0 1 2.32,-3.15a14.74,14.74 0 0 1 1.84,-1.45a18,18 0 0 1 2.61,-1.5a10.33,10.33 0 0 1 2.37,-0.82c0.68,-0.13 1.08,0 1.21,0.39s0.18,1.06 0.34,2s0.34,2 0.53,3.19s0.4,2.36 0.63,3.58s0.47,2.24 0.66,3.08z" class="cls-1"/>
  <path id="svg_3" d="m206.020003,15.980003a32.15,32.15 0 0 0 -4.55,1.41q-3,1.11 -6.39,2.71a73.92,73.92 0 0 0 -6.53,3.48a23.15,23.15 0 0 0 -4.88,3.73a9.85,9.85 0 0 0 -2.81,8.8q0.78,5.13 6.39,11.8a41.26,41.26 0 0 0 6.38,6q4,3.11 8.47,6.15t9,6.09q4.55,3 8.22,5.76t7.16,6.05a38.22,38.22 0 0 1 5.9,6.62a16.11,16.11 0 0 1 2.81,6.68a7.29,7.29 0 0 1 -2,6.1a20.17,20.17 0 0 1 -5.91,4.11a47.18,47.18 0 0 1 -8.8,3.29a54.06,54.06 0 0 1 -10.06,1.69a34.23,34.23 0 0 1 -18.34,-3.77a62.44,62.44 0 0 1 -7.64,-4.79a82.35,82.35 0 0 1 -6.82,-5.56q-3.2,-2.91 -6.1,-5.52a50.84,50.84 0 0 1 -4.55,-4.55q-1.63,-1.94 -2.66,-3.38c-0.67,-1 -1.21,-1.79 -1.59,-2.47a8.45,8.45 0 0 0 -1.36,-1.79a4.2,4.2 0 0 1 -1.16,-1.65a4.52,4.52 0 0 1 -0.39,-1.64c0,-0.45 0.2,-0.69 0.58,-0.73s1,0.31 1.75,1a38.22,38.22 0 0 0 4.54,3.53q3.39,2.37 7.65,4.89a79.19,79.19 0 0 0 8.8,4.5a28.48,28.48 0 0 0 8.13,2.37a48.28,48.28 0 0 0 7.88,0.14a39,39 0 0 0 7.94,-1.21a17.71,17.71 0 0 0 6,-2.71a4.72,4.72 0 0 0 2.08,-4.54c0,-0.2 -0.86,-0.87 -2.57,-2l-6.53,-4.4q-4,-2.66 -8.85,-6.05t-9.53,-7.11q-4.65,-3.72 -8.52,-7.5a32.31,32.31 0 0 1 -5.8,-7.25a39,39 0 0 1 -4.21,-10.31a26.57,26.57 0 0 1 -0.63,-9.62a20.05,20.05 0 0 1 2.9,-8.23a18.7,18.7 0 0 1 6.39,-6.09a21.76,21.76 0 0 1 3.82,-1.7q2.57,-0.92 5.13,-1.88a37.53,37.53 0 0 0 4.6,-2.08a4.73,4.73 0 0 0 2.41,-2.28a2.43,2.43 0 0 1 2.81,-2a19.14,19.14 0 0 1 5,1.26q2.13,0.77 6.05,2.27t8,3.15l7.6,3q3.48,1.41 4.83,1.89a8.17,8.17 0 0 1 2.76,2a9.65,9.65 0 0 1 2.13,3.15a2.68,2.68 0 0 1 -0.19,2.71c-0.55,0.74 -2,1 -4.31,0.82a61.73,61.73 0 0 1 -6.14,-1.07a5.37,5.37 0 0 1 -3.44,-2a4.42,4.42 0 0 0 -2.19,-1.63a10.12,10.12 0 0 0 -3,-0.44a16.55,16.55 0 0 0 -3.1,0.29c-0.96,0.22 -1.85,0.39 -2.56,0.51z" class="cls-1"/>
  <path id="svg_4" d="m280.820003,15.980003a31.72,31.72 0 0 0 -4.54,1.41c-2,0.74 -4.13,1.64 -6.39,2.71a71.21,71.21 0 0 0 -6.53,3.48a23,23 0 0 0 -4.89,3.73a9.84,9.84 0 0 0 -2.8,8.8q0.76,5.13 6.38,11.8a40.92,40.92 0 0 0 6.39,6q4,3.11 8.46,6.15t9.05,6.09q4.55,3 8.22,5.76t7.16,6.05a38.3,38.3 0 0 1 5.91,6.62a16,16 0 0 1 2.8,6.68a7.23,7.23 0 0 1 -2,6.1a20.11,20.11 0 0 1 -5.9,4.11a47.28,47.28 0 0 1 -8.81,3.29a53.92,53.92 0 0 1 -10.06,1.69a34.22,34.22 0 0 1 -18.33,-3.77a62.56,62.56 0 0 1 -7.65,-4.79a84,84 0 0 1 -6.82,-5.56l-6.09,-5.52a48.29,48.29 0 0 1 -4.55,-4.55q-1.65,-1.94 -2.66,-3.38c-0.68,-1 -1.21,-1.79 -1.6,-2.47a8.75,8.75 0 0 0 -1.35,-1.79a4.22,4.22 0 0 1 -1.17,-1.65a4.69,4.69 0 0 1 -0.38,-1.64c0,-0.45 0.19,-0.69 0.58,-0.73s1,0.31 1.74,1a38.57,38.57 0 0 0 4.55,3.53q3.38,2.37 7.64,4.89a79.34,79.34 0 0 0 8.81,4.5a28.52,28.52 0 0 0 8.12,2.37a48.43,48.43 0 0 0 7.89,0.14a38.9,38.9 0 0 0 7.93,-1.21a17.71,17.71 0 0 0 6,-2.71a4.7,4.7 0 0 0 2.08,-4.54c0,-0.2 -0.85,-0.87 -2.56,-2l-6.53,-4.4q-4,-2.66 -8.86,-6.05t-9.53,-7.11q-4.63,-3.72 -8.51,-7.5a32.38,32.38 0 0 1 -5.81,-7.25a39,39 0 0 1 -4.21,-10.31a26.78,26.78 0 0 1 -0.62,-9.62a19.77,19.77 0 0 1 2.9,-8.23a18.66,18.66 0 0 1 6.34,-6.11a21.93,21.93 0 0 1 3.83,-1.7q2.55,-0.92 5.12,-1.88a36.86,36.86 0 0 0 4.6,-2.08a4.76,4.76 0 0 0 2.45,-2.28a2.42,2.42 0 0 1 2.81,-2a19.23,19.23 0 0 1 5,1.26c1.41,0.51 3.43,1.27 6,2.27s5.29,2 8,3.15l7.6,3q3.59,1.42 4.92,1.89a8.15,8.15 0 0 1 2.75,2a9.65,9.65 0 0 1 2.13,3.15a2.66,2.66 0 0 1 -0.21,2.75c-0.55,0.74 -2,1 -4.31,0.82a62.25,62.25 0 0 1 -6.14,-1.07a5.34,5.34 0 0 1 -3.43,-2a4.41,4.41 0 0 0 -2.26,-1.65a10,10 0 0 0 -3,-0.44a16.52,16.52 0 0 0 -3.09,0.29c-1,0.22 -1.86,0.39 -2.57,0.51z" class="cls-1"/>
  <path id="svg_5" d="m316.440003,18.500003a16.82,16.82 0 0 0 0.77,-3.82a9,9 0 0 0 -0.19,-2.71a4.61,4.61 0 0 0 -0.87,-1.79a6.25,6.25 0 0 0 -1.16,-1.07a5.22,5.22 0 0 0 -1.55,-0.48a5.69,5.69 0 0 1 -1.31,-0.29a0.92,0.92 0 0 1 -0.63,-0.73a4,4 0 0 1 0.49,-1.88a1.94,1.94 0 0 1 1.63,-1.11a9.68,9.68 0 0 1 3.1,0.15a15.91,15.91 0 0 1 3.9,1.39a25.52,25.52 0 0 1 4.11,2.57a12.73,12.73 0 0 1 3.77,5.22a31,31 0 0 1 1.94,7.5a66.75,66.75 0 0 1 0.58,9c0,3.16 -0.12,6.36 -0.34,9.58s-0.5,6.35 -0.82,9.39s-0.58,5.77 -0.78,8.22a85.13,85.13 0 0 0 -0.39,9.82a65,65 0 0 0 0.83,9.29a41.14,41.14 0 0 0 2.22,8.27a22.71,22.71 0 0 0 4,6.77a10.6,10.6 0 0 0 4.79,3.63a7.4,7.4 0 0 0 4.74,-0.09a15.26,15.26 0 0 0 4.88,-3a62.45,62.45 0 0 0 5.33,-5.28a63.1,63.1 0 0 0 5.51,-6.87a47.11,47.11 0 0 0 4.89,-9.14a78.66,78.66 0 0 0 3.77,-12.09a96.84,96.84 0 0 0 2.18,-15.63q0.58,-8.72 0.53,-15t-0.34,-10.7c-0.22,-3 -0.5,-5.48 -0.82,-7.55s-0.58,-3.93 -0.77,-5.61a5.86,5.86 0 0 1 0.38,-3.24a2.21,2.21 0 0 1 1.75,-1.16a5.65,5.65 0 0 1 2.75,0.48a22.08,22.08 0 0 1 3.24,1.6c1.49,0.9 2.7,1.68 3.63,2.32a8.24,8.24 0 0 1 2.32,2.42a18.17,18.17 0 0 1 1.7,3.63q0.76,2.17 1.74,5.85a56.35,56.35 0 0 1 1.55,9.19a87.87,87.87 0 0 1 0.19,11.76a140,140 0 0 1 -1.45,14.31q-1.16,7.78 -3.39,16.79a88.21,88.21 0 0 1 -5.85,16.3a48.34,48.34 0 0 1 -8.37,12.4a32.21,32.21 0 0 1 -25.06,10.21a18.44,18.44 0 0 1 -7.93,-1.93a29.67,29.67 0 0 1 -6.83,-4.74a40.29,40.29 0 0 1 -5.7,-6.58a64.64,64.64 0 0 1 -4.55,-7.55a73,73 0 0 1 -3.39,-7.64a65.87,65.87 0 0 1 -2.17,-6.87a46.8,46.8 0 0 1 -1.12,-7.79c-0.22,-3.13 -0.34,-6.52 -0.34,-10.16s0.1,-7.36 0.29,-11.13s0.44,-7.3 0.73,-10.59s0.6,-6.16 0.92,-8.62a33.6,33.6 0 0 1 0.97,-5.22z" class="cls-1"/>
  <path id="svg_6" d="m453.070003,20.430003a28.1,28.1 0 0 1 0.68,5.76a63.88,63.88 0 0 1 -0.19,6.87a65.6,65.6 0 0 1 -0.92,6.82a31.61,31.61 0 0 1 -1.5,5.52c-0.39,0.84 -1,2.08 -1.79,3.72a31.14,31.14 0 0 1 -3.34,5.23a31.62,31.62 0 0 1 -5.27,5.27a20.19,20.19 0 0 1 -7.6,3.68a37.28,37.28 0 0 1 -10.45,1.3a85.15,85.15 0 0 1 -10.64,-0.72q-0.49,7 -1.21,14.08c-0.48,4.74 -1.07,9.11 -1.74,13.11a97.06,97.06 0 0 1 -2.23,10.25c-0.81,2.84 -1.72,4.65 -2.76,5.42a6.5,6.5 0 0 1 -2.32,1.07a12.51,12.51 0 0 1 -3.14,0.38a9.46,9.46 0 0 1 -3.29,-0.58a6.43,6.43 0 0 1 -2.76,-1.93a17.24,17.24 0 0 1 -1.84,-2.86c-0.39,-0.8 0.1,-1.27 1.45,-1.4s2.05,-1.55 2.47,-4.45s0.79,-6.71 1.11,-11.42c0.07,-1.22 0.16,-2.74 0.29,-4.55s0.29,-3.77 0.49,-5.9s0.4,-4.38 0.63,-6.77s0.46,-4.84 0.72,-7.35a11.83,11.83 0 0 0 -1.16,-0.34a1.12,1.12 0 0 1 -0.77,-0.53c-0.2,-0.33 -0.1,-0.73 0.29,-1.21a3.19,3.19 0 0 1 1.93,-1c0.26,-3.1 0.55,-6.11 0.87,-9s0.6,-5.62 0.83,-8.08s0.43,-4.58 0.62,-6.38s0.33,-3.13 0.39,-4a37.17,37.17 0 0 0 0.15,-6.77a9,9 0 0 0 -2.18,-5.32a21.77,21.77 0 0 1 -3.1,-4.36a3.86,3.86 0 0 1 -0.53,-2.46a1.23,1.23 0 0 1 1.16,-0.91a4.77,4.77 0 0 1 1.89,0.19a4,4 0 0 0 2.18,0.29a3.76,3.76 0 0 0 1.59,-0.87c0.84,-0.64 2.05,-1.52 3.63,-2.61a45.81,45.81 0 0 1 5.52,-3.24a43.34,43.34 0 0 1 6.82,-2.76a29.86,29.86 0 0 1 7.64,-1.36q11.13,-0.57 17.9,4t9.48,16.17zm-12.19,7.07a21.33,21.33 0 0 0 0.58,-7a19,19 0 0 0 -1.69,-6.53a17,17 0 0 0 -3.92,-5.35a15.15,15.15 0 0 0 -6.29,-3.39a11.53,11.53 0 0 0 -5.85,0a33.09,33.09 0 0 0 -6.2,2a50.56,50.56 0 0 0 -5.32,2.71l-3.33,2c-1.68,1 -2.49,1.9 -2.42,2.61a3.79,3.79 0 0 0 1.64,2.33a14,14 0 0 1 4.45,7.35a33.82,33.82 0 0 1 1.16,10.35c0,0.39 0,1.21 -0.09,2.47s-0.15,2.8 -0.25,4.64s-0.19,3.94 -0.29,6.29s-0.24,4.89 -0.43,7.6a60.42,60.42 0 0 0 11.85,-3.49a23.52,23.52 0 0 0 7.79,-5.27a25.32,25.32 0 0 0 5,-7.93a81.63,81.63 0 0 0 3.61,-11.39z" class="cls-1"/>
  <path id="svg_7" d="m12.290003,134.620003a0.94,0.94 0 0 1 0.36,0.32a0.91,0.91 0 0 1 0.16,0.4a1.26,1.26 0 0 1 0,0.39a1.15,1.15 0 0 1 -0.13,0.34c-0.24,0.42 -0.48,0.44 -0.72,0s-0.45,-0.52 -0.65,-0.52l-0.31,0a2.82,2.82 0 0 0 -0.54,0.24a5.47,5.47 0 0 0 -0.76,0.52a8,8 0 0 0 -0.94,0.92a4.74,4.74 0 0 0 -0.91,1.53a9,9 0 0 0 -0.45,1.73a12,12 0 0 0 -0.15,1.63c0,0.51 0,0.92 0,1.22a11.34,11.34 0 0 1 0,1.46a2.3,2.3 0 0 1 -0.29,1a0.72,0.72 0 0 1 -0.43,0.35a0.71,0.71 0 0 1 -0.45,0a2.25,2.25 0 0 1 -0.46,-0.3a5.5,5.5 0 0 1 -0.42,-0.38l-0.2,-0.23l-0.22,-0.3c-0.07,-0.09 -0.1,-0.16 -0.09,-0.2s0.07,0 0.21,0s0.06,0 0.09,-0.14a3.08,3.08 0 0 0 0,-0.51q0,-0.31 0,-0.75t0,-0.87c0,-0.37 0,-0.85 0,-1.43s0.05,-1.16 0.08,-1.73s0.08,-1.11 0.13,-1.6a4.77,4.77 0 0 1 0.18,-1a1.3,1.3 0 0 0 0.08,-0.55a0.86,0.86 0 0 0 -0.13,-0.4a0.81,0.81 0 0 0 -0.27,-0.28l-0.31,-0.2a0.44,0.44 0 0 1 -0.16,-0.19a0.56,0.56 0 0 1 -0.08,-0.26a0.29,0.29 0 0 1 0.09,-0.22c0.05,-0.06 0.14,-0.08 0.28,-0.07a5.27,5.27 0 0 1 0.82,0.17a2.39,2.39 0 0 1 0.53,0.24a1.26,1.26 0 0 1 0.35,0.34c0.09,0.13 0.19,0.27 0.28,0.42a6.85,6.85 0 0 1 2,-1.33a4.5,4.5 0 0 1 1.58,-0.34a2.93,2.93 0 0 1 1.14,0.22l0.71,0.36z" class="cls-1"/>
  <path id="svg_8" d="m28.410003,139.810003a4.46,4.46 0 0 0 1.51,-0.34a5.07,5.07 0 0 0 1.17,-0.68a3.67,3.67 0 0 0 0.77,-0.82a2,2 0 0 0 0.35,-0.78a7.06,7.06 0 0 0 0.1,-0.93a1,1 0 0 0 -0.19,-0.64c-0.14,-0.16 -0.25,-0.17 -0.36,-0.05a4.58,4.58 0 0 1 -0.53,0.5c-0.14,0.12 -0.34,0.3 -0.58,0.54s-0.48,0.51 -0.74,0.81s-0.49,0.61 -0.73,0.95a6.77,6.77 0 0 0 -0.57,1l-0.41,1a6.51,6.51 0 0 0 -0.35,1a4.29,4.29 0 0 0 -0.13,1a2.46,2.46 0 0 0 0.19,1a3,3 0 0 0 0.43,0.7a2.09,2.09 0 0 0 0.77,0.58a2.76,2.76 0 0 0 1.17,0.2a4.52,4.52 0 0 0 1.66,-0.44c0.54,-0.24 0.91,-0.42 1.12,-0.54a2.32,2.32 0 0 0 0.42,-0.3a1,1 0 0 0 0.2,-0.26a1.6,1.6 0 0 1 0.42,-0.41a3.59,3.59 0 0 1 1,-0.67c0.23,-0.08 0.27,0 0.13,0.29a1.48,1.48 0 0 0 -0.2,0.56c0,0.21 -0.08,0.43 -0.13,0.65a3.11,3.11 0 0 1 -0.21,0.63a1.36,1.36 0 0 1 -0.44,0.52a4.38,4.38 0 0 1 -0.76,0.43a8.33,8.33 0 0 1 -1,0.37a9.62,9.62 0 0 1 -1.09,0.26a3.79,3.79 0 0 1 -1,0.06a7.69,7.69 0 0 1 -1.33,-0.22a5.37,5.37 0 0 1 -1.24,-0.5a4.22,4.22 0 0 1 -1,-0.84a3.8,3.8 0 0 1 -0.73,-1.24a5.21,5.21 0 0 1 -0.32,-1.56a9,9 0 0 1 0.07,-1.65a8.36,8.36 0 0 1 0.38,-1.55a6.07,6.07 0 0 1 0.61,-1.25a10.1,10.1 0 0 1 1.07,-1.57a7.63,7.63 0 0 1 0.86,-0.82c0.25,-0.2 0.43,-0.34 0.57,-0.43a0.54,0.54 0 0 0 0.25,-0.3a0.28,0.28 0 0 1 0.23,-0.21a0.82,0.82 0 0 1 0.44,0a2.84,2.84 0 0 1 0.62,0.19l0.84,0.32l0.81,0.34c0.26,0.1 0.44,0.18 0.54,0.23a1.86,1.86 0 0 1 0.91,0.79a2.84,2.84 0 0 1 0.37,1.14a3.42,3.42 0 0 1 -0.1,1.23a2.62,2.62 0 0 1 -0.54,1.05a5.17,5.17 0 0 1 -1.4,1.11a4.69,4.69 0 0 1 -1.43,0.47a3.7,3.7 0 0 1 -1.29,0a3.17,3.17 0 0 1 -1,-0.35a0.77,0.77 0 0 1 -0.34,-0.36c-0.05,-0.12 0.01,-0.2 0.16,-0.21z" class="cls-1"/>
  <path id="svg_9" d="m54.200003,138.620003a1.28,1.28 0 0 0 0.51,0.95a12.09,12.09 0 0 0 1.22,1l1.42,1a4.49,4.49 0 0 1 1.11,1.11a1.65,1.65 0 0 1 0.07,2a2.43,2.43 0 0 1 -0.77,0.68a5.24,5.24 0 0 1 -1,0.44a3.28,3.28 0 0 1 -2.14,-0.18a4.34,4.34 0 0 1 -1.89,-1.43a20.69,20.69 0 0 0 -1.43,-1.55a9.21,9.21 0 0 1 -0.85,-0.87a0.7,0.7 0 0 1 -0.14,-0.24a0.09,0.09 0 0 1 0.07,-0.1a0.48,0.48 0 0 1 0.17,0a0.62,0.62 0 0 1 0.19,0.07l0.28,0.21c0.13,0.1 0.27,0.22 0.44,0.34l0.54,0.4q0.3,0.21 0.6,0.39a5.37,5.37 0 0 0 1.36,0.61a4.77,4.77 0 0 0 1.07,0.18a2.8,2.8 0 0 0 0.77,-0.09c0.2,-0.07 0.37,-0.13 0.5,-0.19s0.24,-0.34 -0.06,-0.7a8.65,8.65 0 0 0 -1.85,-1.45a5.89,5.89 0 0 1 -1.34,-1.14a4.36,4.36 0 0 1 -0.67,-1.12a3.37,3.37 0 0 1 -0.21,-1a6.15,6.15 0 0 1 0,-0.87a3.06,3.06 0 0 1 0.5,-1.49a4.23,4.23 0 0 1 0.82,-0.89a0.69,0.69 0 0 0 0.17,-0.2a0.37,0.37 0 0 1 0.07,-0.14s0.07,0 0.13,0l0.37,0.14a6.83,6.83 0 0 0 0.73,0.24l1.14,0.35l1.2,0.42a4,4 0 0 1 0.91,0.45a2.57,2.57 0 0 1 0.69,0.67c0.11,0.18 0.06,0.37 -0.13,0.58a0.56,0.56 0 0 1 -0.38,0.17a1.83,1.83 0 0 1 -0.52,0a2.64,2.64 0 0 1 -0.52,-0.13a1.59,1.59 0 0 1 -0.37,-0.18c-0.16,-0.11 -0.29,-0.21 -0.41,-0.28a0.7,0.7 0 0 1 -0.24,-0.32c-0.06,-0.17 -0.13,-0.24 -0.22,-0.21l-0.38,0.19c-0.12,0.09 -0.26,0.18 -0.44,0.29a2.72,2.72 0 0 0 -0.5,0.42a2.37,2.37 0 0 0 -0.4,0.62a2.17,2.17 0 0 0 -0.19,0.85z" class="cls-1"/>
  <path id="svg_10" d="m76.620003,139.810003a4.46,4.46 0 0 0 1.51,-0.34a5.07,5.07 0 0 0 1.17,-0.68a3.67,3.67 0 0 0 0.77,-0.82a2,2 0 0 0 0.35,-0.78a7.06,7.06 0 0 0 0.1,-0.93a1,1 0 0 0 -0.19,-0.64c-0.14,-0.16 -0.25,-0.17 -0.36,-0.05a4.58,4.58 0 0 1 -0.53,0.5c-0.14,0.12 -0.34,0.3 -0.58,0.54s-0.48,0.51 -0.74,0.81s-0.49,0.61 -0.73,0.95a6.77,6.77 0 0 0 -0.57,1l-0.41,1a6.51,6.51 0 0 0 -0.35,1a4.29,4.29 0 0 0 -0.13,1a2.46,2.46 0 0 0 0.19,1a3,3 0 0 0 0.43,0.7a2.09,2.09 0 0 0 0.77,0.58a2.76,2.76 0 0 0 1.17,0.2a4.52,4.52 0 0 0 1.66,-0.44c0.54,-0.24 0.91,-0.42 1.12,-0.54a2.32,2.32 0 0 0 0.42,-0.3a1,1 0 0 0 0.2,-0.26a1.6,1.6 0 0 1 0.42,-0.41a3.59,3.59 0 0 1 1,-0.67c0.23,-0.08 0.27,0 0.13,0.29a1.48,1.48 0 0 0 -0.2,0.56c0,0.21 -0.08,0.43 -0.13,0.65a3.11,3.11 0 0 1 -0.21,0.63a1.36,1.36 0 0 1 -0.44,0.52a4.38,4.38 0 0 1 -0.76,0.43a8.33,8.33 0 0 1 -1,0.37a9.62,9.62 0 0 1 -1.09,0.26a3.79,3.79 0 0 1 -1.05,0.06a7.69,7.69 0 0 1 -1.33,-0.22a5.37,5.37 0 0 1 -1.24,-0.5a4.22,4.22 0 0 1 -1.05,-0.84a3.8,3.8 0 0 1 -0.73,-1.24a5.21,5.21 0 0 1 -0.32,-1.56a9,9 0 0 1 0.07,-1.65a8.36,8.36 0 0 1 0.38,-1.55a6.07,6.07 0 0 1 0.61,-1.25a10.1,10.1 0 0 1 1.17,-1.57a7.63,7.63 0 0 1 0.86,-0.82a6,6 0 0 1 0.57,-0.43a0.54,0.54 0 0 0 0.25,-0.3a0.28,0.28 0 0 1 0.23,-0.21a0.82,0.82 0 0 1 0.44,0a2.84,2.84 0 0 1 0.62,0.19l0.84,0.32l0.81,0.34c0.26,0.1 0.44,0.18 0.54,0.23a1.86,1.86 0 0 1 0.91,0.79a2.84,2.84 0 0 1 0.37,1.14a3.42,3.42 0 0 1 -0.1,1.23a2.62,2.62 0 0 1 -0.54,1.05a5.17,5.17 0 0 1 -1.4,1.11a4.69,4.69 0 0 1 -1.43,0.47a3.7,3.7 0 0 1 -1.29,0a3.17,3.17 0 0 1 -1,-0.35a0.77,0.77 0 0 1 -0.34,-0.36c-0.05,-0.12 0.01,-0.2 0.16,-0.21z" class="cls-1"/>
  <path id="svg_11" d="m112.110003,141.840003c0.11,-0.11 0.16,-0.08 0.14,0.1a2.65,2.65 0 0 1 -0.18,0.7a6.34,6.34 0 0 1 -0.43,0.94a3.24,3.24 0 0 1 -0.58,0.8a5.85,5.85 0 0 1 -0.67,0.56a2.43,2.43 0 0 1 -0.73,0.38a1.84,1.84 0 0 1 -0.81,0.08a2.08,2.08 0 0 1 -0.88,-0.33a2.11,2.11 0 0 1 -0.82,-0.89c-0.16,-0.36 -0.31,-0.72 -0.44,-1.08a0.1,0.1 0 0 0 0,0a0.07,0.07 0 0 1 0,-0.05a4.06,4.06 0 0 0 -0.32,0.37c-0.1,0.14 -0.19,0.26 -0.26,0.37a5.72,5.72 0 0 1 -1.56,1.69a3.7,3.7 0 0 1 -2.12,0.57a2,2 0 0 1 -1.18,-0.39a3.73,3.73 0 0 1 -0.95,-1a5.56,5.56 0 0 1 -0.64,-1.46a7.08,7.08 0 0 1 -0.25,-1.72a5.56,5.56 0 0 1 0.19,-1.86a10.75,10.75 0 0 1 0.7,-1.71a9.62,9.62 0 0 1 0.9,-1.42a6.8,6.8 0 0 1 0.89,-1l0.57,-0.51a1.39,1.39 0 0 0 0.22,-0.23a0.19,0.19 0 0 0 0.05,-0.12s0,-0.09 0.06,-0.19a0.83,0.83 0 0 1 0.23,-0.26c0.09,-0.07 0.24,-0.07 0.46,0a2.37,2.37 0 0 0 0.51,0.09l0.72,0.08l0.75,0.09l0.65,0.1a5.11,5.11 0 0 1 0.77,0.21a1,1 0 0 1 0.37,0.23l0.16,0.15a0.6,0.6 0 0 1 0.13,0.21a0.51,0.51 0 0 1 0.12,-0.13a0.64,0.64 0 0 1 0.21,-0.05a1.38,1.38 0 0 1 0.94,0.2q0.23,0.21 0.09,0.75a32.4,32.4 0 0 0 -0.78,4.31a9.72,9.72 0 0 0 0,2.34a3,3 0 0 0 0.25,0.85c0.09,0.16 0.3,0.17 0.62,0s0.41,-0.19 0.7,-0.34s0.57,-0.33 0.85,-0.51s0.56,-0.36 0.82,-0.54a6.26,6.26 0 0 0 0.53,-0.38zm-5.17,-4.88a0.69,0.69 0 0 0 0,-0.5a0.55,0.55 0 0 0 -0.25,-0.29a1.29,1.29 0 0 0 -0.42,-0.12a2,2 0 0 0 -0.43,0l-0.61,0.13a2.41,2.41 0 0 0 -0.72,0.31a4.38,4.38 0 0 0 -0.85,0.7a6.83,6.83 0 0 0 -1,1.32a8.39,8.39 0 0 0 -0.7,1.37a9.79,9.79 0 0 0 -0.46,1.46a5.91,5.91 0 0 0 -0.17,1.33a2.63,2.63 0 0 0 0.15,1a1.55,1.55 0 0 0 0.47,0.71a0.61,0.61 0 0 0 0.52,0.09a1.54,1.54 0 0 0 0.55,-0.29c0.18,-0.15 0.36,-0.3 0.54,-0.47s0.5,-0.46 0.75,-0.71a7,7 0 0 0 0.69,-0.84a5.52,5.52 0 0 0 0.57,-0.93a5.61,5.61 0 0 0 0.39,-1.06q0.18,-0.77 0.33,-1.29c0.09,-0.36 0.18,-0.66 0.25,-0.92s0.14,-0.46 0.2,-0.63s0.17,-0.25 0.2,-0.37z" class="cls-1"/>
  <path id="svg_12" d="m135.290003,134.620003a0.94,0.94 0 0 1 0.36,0.32a0.91,0.91 0 0 1 0.16,0.4a1.26,1.26 0 0 1 0,0.39a1.15,1.15 0 0 1 -0.13,0.34c-0.24,0.42 -0.48,0.44 -0.72,0s-0.45,-0.52 -0.65,-0.52l-0.31,0a2.82,2.82 0 0 0 -0.54,0.24a5.47,5.47 0 0 0 -0.76,0.52a8,8 0 0 0 -0.94,0.92a4.74,4.74 0 0 0 -0.91,1.53a9,9 0 0 0 -0.45,1.73a12,12 0 0 0 -0.15,1.63c0,0.51 0,0.92 0,1.22a11.34,11.34 0 0 1 0,1.46a2.3,2.3 0 0 1 -0.29,1a0.72,0.72 0 0 1 -0.43,0.35a0.71,0.71 0 0 1 -0.45,0a2,2 0 0 1 -0.46,-0.3a5.5,5.5 0 0 1 -0.42,-0.38l-0.2,-0.23l-0.22,-0.3c-0.07,-0.09 -0.1,-0.16 -0.09,-0.2s0.07,0 0.21,0s0.06,0 0.09,-0.14a4.8,4.8 0 0 0 0,-0.51q0,-0.31 0,-0.75c0,-0.28 0,-0.57 0,-0.87s0,-0.85 0,-1.43s0.05,-1.16 0.08,-1.73s0.08,-1.11 0.13,-1.6a4.77,4.77 0 0 1 0.18,-1a1.3,1.3 0 0 0 0.08,-0.55a1,1 0 0 0 -0.13,-0.4a0.91,0.91 0 0 0 -0.27,-0.28l-0.31,-0.2a0.44,0.44 0 0 1 -0.16,-0.19a0.56,0.56 0 0 1 -0.08,-0.26a0.29,0.29 0 0 1 0.09,-0.22c0,-0.06 0.14,-0.08 0.28,-0.07a5.27,5.27 0 0 1 0.82,0.17a2.39,2.39 0 0 1 0.53,0.24a1.42,1.42 0 0 1 0.35,0.34c0.09,0.13 0.19,0.27 0.28,0.42a6.85,6.85 0 0 1 2,-1.33a4.5,4.5 0 0 1 1.58,-0.34a2.93,2.93 0 0 1 1.14,0.22l0.71,0.36z" class="cls-1"/>
  <path id="svg_13" d="m152.620003,134.620003a2,2 0 0 1 0.32,-0.2a0.74,0.74 0 0 0 0.31,-0.32c0.09,-0.17 0.17,-0.25 0.25,-0.25a0.44,0.44 0 0 1 0.27,0.14l0.33,0.19l0.58,0.29l0.65,0.29c0.22,0.1 0.4,0.17 0.54,0.22a2.61,2.61 0 0 1 1.34,1.05a0.27,0.27 0 0 1 0,0.31a0.69,0.69 0 0 1 -0.28,0.22a1.61,1.61 0 0 1 -0.39,0.12l-0.34,0l-0.38,0a0.16,0.16 0 0 1 -0.16,-0.13a0.57,0.57 0 0 0 -0.12,-0.23a0.38,0.38 0 0 0 -0.23,-0.15a0.94,0.94 0 0 0 -0.37,0a1.42,1.42 0 0 0 -0.49,0.23a7.32,7.32 0 0 0 -2,1.78a7.12,7.12 0 0 0 -1.07,1.92a6,6 0 0 0 -0.38,1.82a8.33,8.33 0 0 0 0,1.47a1.24,1.24 0 0 0 0.84,1.06a3,3 0 0 0 2.11,-0.39a3.45,3.45 0 0 0 1.06,-0.69a2.32,2.32 0 0 0 0.45,-0.67a4.79,4.79 0 0 0 0.2,-0.61a1.06,1.06 0 0 1 0.31,-0.55c0.12,-0.1 0.27,-0.24 0.43,-0.4s0.32,-0.31 0.47,-0.44l0.36,-0.27c0.09,-0.05 0.12,0 0.1,0a3.55,3.55 0 0 0 -0.1,0.66q0,0.39 -0.09,0.87a7.73,7.73 0 0 1 -0.21,1a4.22,4.22 0 0 1 -0.47,1.08a3.58,3.58 0 0 1 -0.87,1a4.38,4.38 0 0 1 -1.18,0.65a4.3,4.3 0 0 1 -1.34,0.25a3.26,3.26 0 0 1 -1.34,-0.25a4.27,4.27 0 0 1 -1.41,-0.88a2.76,2.76 0 0 1 -0.72,-1.14a4.08,4.08 0 0 1 -0.21,-1.44a15.07,15.07 0 0 1 0.12,-1.8a9.07,9.07 0 0 1 0.36,-1.7a10.92,10.92 0 0 1 0.66,-1.65a8.92,8.92 0 0 1 0.92,-1.45a5.08,5.08 0 0 1 1.17,-1.01z" class="cls-1"/>
  <path id="svg_14" d="m175.070003,127.490003a1.57,1.57 0 0 0 0,-0.35a0.44,0.44 0 0 0 -0.07,-0.22a1.63,1.63 0 0 0 -0.19,-0.21a4,4 0 0 1 -0.31,-0.3a0.59,0.59 0 0 1 -0.2,-0.34a0.2,0.2 0 0 1 0.09,-0.2a0.51,0.51 0 0 1 0.31,0a1.54,1.54 0 0 1 0.42,0.13c0.32,0.17 0.65,0.35 1,0.55a2.2,2.2 0 0 1 0.79,0.81a1.74,1.74 0 0 1 0.17,0.53a3.21,3.21 0 0 1 0,0.71c0,0.27 -0.05,0.58 -0.09,0.94s-0.08,0.76 -0.12,1.23s-0.07,0.93 -0.11,1.41s-0.07,0.94 -0.1,1.38s-0.06,0.81 -0.09,1.15a6.66,6.66 0 0 1 -0.1,0.78c-0.06,0.35 -0.06,0.53 0,0.53s0.17,-0.09 0.38,-0.3a3.66,3.66 0 0 1 0.48,-0.34a5.24,5.24 0 0 1 0.75,-0.37a8.07,8.07 0 0 1 0.91,-0.29a3.87,3.87 0 0 1 0.95,-0.12a6.86,6.86 0 0 1 0.82,0.06a4.34,4.34 0 0 1 1,0.23a4.4,4.4 0 0 1 1,0.52a4,4 0 0 1 1,0.89a2.82,2.82 0 0 1 0.41,1.13a10.3,10.3 0 0 1 0.18,1.68c0,0.62 0,1.27 0,1.93s-0.05,1.3 -0.1,1.9s-0.09,1.12 -0.14,1.57s-0.09,0.76 -0.12,0.93a0.7,0.7 0 0 1 -0.26,0.54a0.73,0.73 0 0 1 -0.45,0.12a1.2,1.2 0 0 1 -0.48,-0.11a1.13,1.13 0 0 1 -0.34,-0.19a0.91,0.91 0 0 1 -0.27,-0.26l-0.35,-0.41c-0.12,-0.15 -0.24,-0.3 -0.38,-0.45s-0.26,-0.27 -0.38,-0.38a2.73,2.73 0 0 1 -0.4,-0.41c-0.06,-0.08 -0.07,-0.14 0,-0.17a0.2,0.2 0 0 1 0.16,0a0.34,0.34 0 0 1 0.15,0c0.23,0.07 0.35,0.09 0.36,0a2.92,2.92 0 0 0 0,-0.36c0,-0.18 0,-0.44 0.06,-0.77s0.06,-0.72 0.13,-1.18c0,-0.23 0.06,-0.56 0.08,-1s0,-0.9 0,-1.38s0,-0.92 0,-1.34s0,-0.73 -0.05,-0.91a4,4 0 0 0 -0.08,-0.42a0.32,0.32 0 0 0 -0.16,-0.21a0.51,0.51 0 0 0 -0.29,0l-0.46,0.1a6.88,6.88 0 0 0 -1.42,0.55a5.54,5.54 0 0 0 -1.55,1.31a3.77,3.77 0 0 0 -0.62,1.09a7.91,7.91 0 0 0 -0.35,1.24a11.16,11.16 0 0 0 -0.19,1.16c0,0.36 -0.08,0.64 -0.12,0.83a3.73,3.73 0 0 0 -0.06,1.2c0,0.41 0.07,0.84 0.1,1.3a1,1 0 0 1 -0.33,0.91a1.29,1.29 0 0 1 -0.92,0.13a0.8,0.8 0 0 1 -0.5,-0.35a3.25,3.25 0 0 1 -0.39,-0.62c-0.11,-0.22 -0.2,-0.43 -0.28,-0.62a1.34,1.34 0 0 0 -0.19,-0.36l-0.11,-0.1a0.11,0.11 0 0 1 0,-0.08a0.82,0.82 0 0 1 0,-0.18a2.7,2.7 0 0 0 0.09,-0.38a12.54,12.54 0 0 0 0.22,-1.5c0.05,-0.54 0.09,-1.14 0.13,-1.78s0.09,-1.34 0.14,-2.1s0.12,-1.56 0.22,-2.43s0.16,-1.61 0.23,-2.5s0.14,-1.71 0.2,-2.48s0.11,-1.44 0.14,-2s0.02,-0.87 0.05,-1z" class="cls-1"/>
  <path id="svg_15" d="m232.800003,144.560003c0.12,0 0.2,0 0.23,0.05a0.41,0.41 0 0 1 0,0.25a1.57,1.57 0 0 1 -0.08,0.33a1.29,1.29 0 0 1 -0.12,0.26a1.4,1.4 0 0 1 -0.68,0.69a0.66,0.66 0 0 1 -0.6,0a2.8,2.8 0 0 1 -0.74,-0.73l-0.78,-1.1c-0.08,-0.12 -0.17,-0.25 -0.26,-0.41a5.6,5.6 0 0 0 -0.31,-0.49a13.67,13.67 0 0 1 -1.78,1.46a5.57,5.57 0 0 1 -2,0.88a3.86,3.86 0 0 1 -2.06,-0.13a4.86,4.86 0 0 1 -2.08,-1.49a3.75,3.75 0 0 1 -0.89,-1.62a4,4 0 0 1 -0.07,-1.58a5,5 0 0 1 0.43,-1.45a11,11 0 0 1 0.64,-1.2a13.29,13.29 0 0 1 1.45,-1.93c0.6,-0.68 1.23,-1.35 1.89,-2l-0.16,-0.4l-0.14,-0.34a13.82,13.82 0 0 1 -0.51,-1.39a7.51,7.51 0 0 1 -0.29,-1.41a5.77,5.77 0 0 1 0.05,-1.49a6.6,6.6 0 0 1 0.49,-1.65a2.61,2.61 0 0 1 1.18,-1.29a3.86,3.86 0 0 1 1.7,-0.43a4.84,4.84 0 0 1 1.82,0.33a4.1,4.1 0 0 1 1.5,0.95a2.34,2.34 0 0 1 0.69,1.39a3.16,3.16 0 0 1 -0.26,1.64a7,7 0 0 1 -1.19,1.83a15.22,15.22 0 0 1 -2.08,1.92a5,5 0 0 0 -0.65,0.54c0.38,0.92 0.78,1.87 1.21,2.86s0.85,1.9 1.25,2.74a14.09,14.09 0 0 0 1.29,-1.59c0.36,-0.5 0.65,-1 0.89,-1.36s0.41,-0.75 0.55,-1l0.29,-0.63a1.58,1.58 0 0 0 0.06,-0.35c0,-0.13 0,-0.26 0,-0.4a2.06,2.06 0 0 1 0,-0.37a0.45,0.45 0 0 1 0.08,-0.24c0,-0.05 0.1,-0.05 0.19,0a2.24,2.24 0 0 1 0.38,0.34a2.18,2.18 0 0 1 0.54,1.17a3.58,3.58 0 0 1 -0.07,1.34a6.06,6.06 0 0 1 -0.5,1.32a7.93,7.93 0 0 1 -0.71,1.16l-0.79,1.09c-0.36,0.48 -0.77,1 -1.24,1.58c0.35,0.7 0.59,1.14 0.71,1.32s0.16,0.24 0.27,0.38a3.44,3.44 0 0 0 0.35,0.41a1.4,1.4 0 0 0 0.41,0.29a0.64,0.64 0 0 0 0.5,-0.05zm-10.18,-1.86a0.94,0.94 0 0 0 0.66,0.54a3.15,3.15 0 0 0 1.33,0.06a6.16,6.16 0 0 0 1.78,-0.57a8.83,8.83 0 0 0 2,-1.38c-0.45,-0.86 -0.9,-1.76 -1.36,-2.72s-0.89,-1.85 -1.28,-2.67a17.38,17.38 0 0 0 -1.44,2.06a19.76,19.76 0 0 0 -1,2a10.24,10.24 0 0 0 -0.59,1.66a2,2 0 0 0 -0.1,1.02zm5.26,-15.62a1.63,1.63 0 0 0 -1.61,0.7a4.87,4.87 0 0 0 -0.38,2.49a4.16,4.16 0 0 0 0.18,1.07c0.12,0.43 0.28,0.93 0.47,1.5c0.42,-0.39 0.81,-0.74 1.16,-1.08l0.88,-0.84a3.17,3.17 0 0 0 0.78,-1.22a2.53,2.53 0 0 0 0.11,-1.23a1.81,1.81 0 0 0 -0.52,-1a1.59,1.59 0 0 0 -1.06,-0.39l-0.01,0z" class="cls-1"/>
  <path id="svg_16" d="m273.480003,138.620003a1.27,1.27 0 0 0 0.52,0.95a11.05,11.05 0 0 0 1.22,1l1.41,1a4.72,4.72 0 0 1 1.12,1.11a1.87,1.87 0 0 1 0.37,1.09a1.65,1.65 0 0 1 -0.31,0.9a2.33,2.33 0 0 1 -0.77,0.68a4.76,4.76 0 0 1 -1,0.44a3.25,3.25 0 0 1 -2.13,-0.09a4.36,4.36 0 0 1 -1.9,-1.43a18.75,18.75 0 0 0 -1.39,-1.65a10.68,10.68 0 0 1 -0.85,-0.87a0.52,0.52 0 0 1 -0.13,-0.24a0.08,0.08 0 0 1 0.06,-0.1a0.48,0.48 0 0 1 0.17,0a0.62,0.62 0 0 1 0.19,0.07a3.29,3.29 0 0 1 0.28,0.21l0.45,0.34c0.16,0.13 0.34,0.26 0.54,0.4s0.39,0.27 0.59,0.39a5.27,5.27 0 0 0 1.37,0.61a4.69,4.69 0 0 0 1.06,0.18a2.76,2.76 0 0 0 0.77,-0.09l0.51,-0.19c0.25,-0.11 0.23,-0.34 -0.07,-0.7a8.65,8.65 0 0 0 -1.85,-1.45a5.81,5.81 0 0 1 -1.33,-1.14a3.85,3.85 0 0 1 -0.67,-1.12a3.13,3.13 0 0 1 -0.22,-1a6,6 0 0 1 0,-0.87a3.06,3.06 0 0 1 0.49,-1.49a4.25,4.25 0 0 1 0.83,-0.89a0.81,0.81 0 0 0 0.16,-0.2a0.6,0.6 0 0 1 0.07,-0.14s0.07,0 0.14,0l0.37,0.14a5.79,5.79 0 0 0 0.72,0.24l1.14,0.35l1.2,0.42a3.84,3.84 0 0 1 0.91,0.45a2.82,2.82 0 0 1 0.7,0.67c0.1,0.18 0.06,0.37 -0.14,0.58a0.54,0.54 0 0 1 -0.38,0.17a1.83,1.83 0 0 1 -0.52,0a3,3 0 0 1 -0.52,-0.13a1.82,1.82 0 0 1 -0.37,-0.18l-0.4,-0.28a0.66,0.66 0 0 1 -0.25,-0.32q-0.09,-0.25 -0.21,-0.21a3.27,3.27 0 0 0 -0.38,0.19c-0.12,0.09 -0.27,0.18 -0.45,0.29a2.51,2.51 0 0 0 -0.9,1a2.34,2.34 0 0 0 -0.22,0.91z" class="cls-1"/>
  <path id="svg_17" d="m302.930003,135.310003a4.51,4.51 0 0 1 0.3,0.89a9.43,9.43 0 0 1 0.23,1.41a14.45,14.45 0 0 1 0,1.77a10.39,10.39 0 0 1 -0.24,2a11.89,11.89 0 0 1 -0.64,2a7.86,7.86 0 0 1 -1.15,1.86a2,2 0 0 1 -0.85,0.59a3.77,3.77 0 0 1 -1.21,0.26a5.1,5.1 0 0 1 -1.38,-0.14a4.4,4.4 0 0 1 -1.38,-0.59a2.79,2.79 0 0 1 -1.09,-1.33a8.23,8.23 0 0 1 -0.58,-2.15a14.74,14.74 0 0 1 -0.14,-2.52a17,17 0 0 1 0.25,-2.54a1,1 0 0 0 0,-0.59a0.55,0.55 0 0 0 -0.27,-0.27a2.77,2.77 0 0 0 -0.38,-0.14a0.69,0.69 0 0 1 -0.35,-0.2a0.9,0.9 0 0 1 -0.12,-0.18a0.31,0.31 0 0 1 0,-0.25a0.33,0.33 0 0 1 0.2,-0.2a1.21,1.21 0 0 1 0.56,0a9.17,9.17 0 0 1 1.15,0.19a1.89,1.89 0 0 1 0.81,0.36a1.52,1.52 0 0 1 0.5,0.7a3.56,3.56 0 0 1 0.19,1.21a7.66,7.66 0 0 1 -0.16,1.42c-0.11,0.57 -0.2,1.18 -0.26,1.83a10.16,10.16 0 0 0 0,2a4.22,4.22 0 0 0 0.57,1.86c0.06,0.11 0.19,0.16 0.4,0.14a2.46,2.46 0 0 0 0.7,-0.19a5.42,5.42 0 0 0 0.82,-0.43a3.55,3.55 0 0 0 0.73,-0.57a3.4,3.4 0 0 0 0.74,-1.17a8.9,8.9 0 0 0 0.42,-1.54a11.25,11.25 0 0 0 0.17,-1.66c0,-0.56 0,-1.09 0,-1.57a11.88,11.88 0 0 0 -0.13,-1.24a2.33,2.33 0 0 0 -0.2,-0.69a2.3,2.3 0 0 0 -0.15,-0.23c0,-0.07 -0.09,-0.14 -0.13,-0.22a0.66,0.66 0 0 1 -0.08,-0.27a1.37,1.37 0 0 1 0,-0.39c0,-0.24 0.14,-0.32 0.33,-0.26a3.29,3.29 0 0 1 0.59,0.3a6.26,6.26 0 0 0 0.75,0.36a1,1 0 0 1 0.48,0.38z" class="cls-1"/>
  <path id="svg_18" d="m328.940003,137.860003a3.22,3.22 0 0 1 0,0.86a9.72,9.72 0 0 1 -0.15,1.21a12.74,12.74 0 0 1 -0.33,1.36a11.48,11.48 0 0 1 -0.48,1.36a7.26,7.26 0 0 1 -0.61,1.18a3,3 0 0 1 -0.74,0.82a6.06,6.06 0 0 1 -2.2,1.11a3.82,3.82 0 0 1 -1.78,0l-0.38,-0.09a2,2 0 0 1 -0.39,-0.14c-0.05,0.31 -0.1,0.6 -0.15,0.88s-0.1,0.52 -0.16,0.76a11.7,11.7 0 0 0 -0.23,1.28c-0.06,0.45 -0.11,0.9 -0.15,1.36s-0.06,0.9 -0.07,1.34s0,0.82 0,1.16s0,0.64 0,0.87l0,0.44a1.35,1.35 0 0 0 0,0.33a1.32,1.32 0 0 1 0,0.34a0.43,0.43 0 0 1 -0.16,0.28a0.84,0.84 0 0 1 -0.47,0.14a0.92,0.92 0 0 1 -0.66,-0.24a3.77,3.77 0 0 1 -0.53,-0.59a6.38,6.38 0 0 1 -0.41,-0.67a2.85,2.85 0 0 0 -0.28,-0.45a0.73,0.73 0 0 1 -0.14,-0.2a0.16,0.16 0 0 1 0,-0.15a0.4,0.4 0 0 1 0.12,-0.15l0.19,-0.24a0.79,0.79 0 0 0 0.14,-0.31a1.59,1.59 0 0 0 0,-0.44a7.31,7.31 0 0 1 0,-0.86q0,-0.6 0.15,-1.68c0,-0.2 0,-0.45 0.07,-0.75s0.08,-0.65 0.13,-1s0.1,-0.76 0.15,-1.17s0.11,-0.82 0.18,-1.23c-0.26,-0.13 -0.39,-0.22 -0.4,-0.28s0.08,-0.1 0.27,-0.15l0.2,-0.06c0.08,-0.59 0.16,-1.12 0.23,-1.6s0.13,-0.84 0.18,-1.07a5.67,5.67 0 0 0 0.05,-0.91c0,-0.38 0,-0.76 -0.06,-1.13s-0.09,-0.71 -0.14,-1a1.6,1.6 0 0 0 -0.19,-0.6c-0.06,-0.06 0,-0.11 0.07,-0.16a1.25,1.25 0 0 1 -0.3,-0.25c-0.26,-0.28 -0.36,-0.5 -0.3,-0.65s0.2,-0.19 0.44,-0.13l0.44,0.11a0.42,0.42 0 0 0 0.22,0a0.4,0.4 0 0 0 0.31,-0.08l0.31,-0.23c0.15,-0.11 0.42,-0.27 0.78,-0.49s0.78,-0.43 1.23,-0.63a9.45,9.45 0 0 1 1.41,-0.51a3.34,3.34 0 0 1 1.27,-0.14a2.81,2.81 0 0 1 1.16,0.44a5.33,5.33 0 0 1 1,0.87a5.93,5.93 0 0 1 0.74,1a4,4 0 0 1 0.42,0.93zm-2.08,0.8c0.05,-0.22 0.1,-0.49 0.16,-0.81a2.64,2.64 0 0 0 0,-0.88a0.94,0.94 0 0 0 -0.35,-0.62c-0.18,-0.14 -0.49,-0.13 -0.93,0l-1.23,0.45l-1.07,0.44l-0.82,0.38a2.12,2.12 0 0 1 -0.51,0.15c-0.32,0 -0.64,0.09 -0.95,0.11q0.14,0.15 0.27,0.33a4.85,4.85 0 0 1 0.29,0.41a2.87,2.87 0 0 1 0.28,0.83a7.85,7.85 0 0 1 0.15,1.2c0,0.44 0,0.92 0,1.43s0,1 -0.07,1.55a2.84,2.84 0 0 1 0.31,-0.06l0.34,0a4.15,4.15 0 0 0 1.7,-0.52a3.58,3.58 0 0 0 1.14,-1.05a6.08,6.08 0 0 0 0.73,-1.49c0.25,-0.62 0.41,-1.22 0.56,-1.89l0,0.04z" class="cls-1"/>
  <path id="svg_19" d="m355.140003,137.860003a3.22,3.22 0 0 1 0,0.86a9.72,9.72 0 0 1 -0.15,1.21a12.74,12.74 0 0 1 -0.33,1.36a9.93,9.93 0 0 1 -0.48,1.36a6.55,6.55 0 0 1 -0.61,1.18a3,3 0 0 1 -0.74,0.82a6,6 0 0 1 -2.2,1.11a3.78,3.78 0 0 1 -1.77,0l-0.38,-0.09a1.9,1.9 0 0 1 -0.4,-0.14c-0.05,0.31 -0.1,0.6 -0.15,0.88s-0.1,0.52 -0.16,0.76a11.7,11.7 0 0 0 -0.23,1.28c-0.06,0.45 -0.11,0.9 -0.15,1.36s-0.06,0.9 -0.07,1.34s0,0.82 0,1.16s0,0.64 0,0.87l0,0.44a2.11,2.11 0 0 0 0,0.33a1.32,1.32 0 0 1 0,0.34a0.43,0.43 0 0 1 -0.16,0.28a0.84,0.84 0 0 1 -0.47,0.14a0.89,0.89 0 0 1 -0.65,-0.24a3.38,3.38 0 0 1 -0.54,-0.59a6.38,6.38 0 0 1 -0.41,-0.67a2.85,2.85 0 0 0 -0.28,-0.45a1.07,1.07 0 0 1 -0.14,-0.2a0.2,0.2 0 0 1 0,-0.15a0.4,0.4 0 0 1 0.12,-0.15l0.19,-0.24a0.79,0.79 0 0 0 0.14,-0.31a1.07,1.07 0 0 0 0,-0.44a7.31,7.31 0 0 1 0,-0.86q0,-0.6 0.15,-1.68c0,-0.2 0,-0.45 0.08,-0.75s0.07,-0.65 0.12,-1s0.1,-0.76 0.15,-1.17l0.18,-1.23c-0.26,-0.13 -0.39,-0.22 -0.4,-0.28s0.08,-0.1 0.27,-0.15l0.2,-0.06c0.08,-0.59 0.16,-1.12 0.23,-1.6s0.14,-0.84 0.18,-1.07a4.7,4.7 0 0 0 0.05,-0.91c0,-0.38 0,-0.76 -0.06,-1.13s-0.08,-0.71 -0.14,-1a1.6,1.6 0 0 0 -0.19,-0.6c-0.06,-0.06 0,-0.11 0.07,-0.16a1.25,1.25 0 0 1 -0.3,-0.25c-0.26,-0.28 -0.36,-0.5 -0.3,-0.65s0.2,-0.19 0.44,-0.13l0.44,0.11a0.42,0.42 0 0 0 0.22,0a0.4,0.4 0 0 0 0.17,-0.09l0.31,-0.23c0.16,-0.11 0.42,-0.27 0.79,-0.49a12.51,12.51 0 0 1 1.22,-0.63a9.45,9.45 0 0 1 1.41,-0.51a3.34,3.34 0 0 1 1.33,-0.14a2.85,2.85 0 0 1 1.17,0.44a5.59,5.59 0 0 1 1,0.87a5.93,5.93 0 0 1 0.74,1a3.63,3.63 0 0 1 0.49,0.94zm-2.08,0.8c0.05,-0.22 0.1,-0.49 0.16,-0.81a2.64,2.64 0 0 0 0,-0.88a0.93,0.93 0 0 0 -0.34,-0.62c-0.19,-0.14 -0.5,-0.13 -0.94,0l-1.23,0.45l-1.07,0.44l-0.82,0.33a2.12,2.12 0 0 1 -0.51,0.15c-0.32,0 -0.64,0.09 -1,0.11c0.09,0.1 0.19,0.21 0.28,0.33s0.18,0.26 0.28,0.41a3.18,3.18 0 0 1 0.29,0.83a7.93,7.93 0 0 1 0.14,1.2c0,0.44 0,0.92 0,1.43s0,1 -0.07,1.55a2.84,2.84 0 0 1 0.31,-0.06l0.34,0a4.15,4.15 0 0 0 1.7,-0.52a3.58,3.58 0 0 0 1.14,-1.05a6.08,6.08 0 0 0 0.73,-1.49c0.3,-0.57 0.46,-1.17 0.61,-1.84l0,0.04z" class="cls-1"/>
  <path id="svg_20" d="m380.380003,139.520003a8,8 0 0 1 -0.1,3.11a4,4 0 0 1 -1.18,2.11a3.84,3.84 0 0 1 -0.73,0.48a5.2,5.2 0 0 1 -1,0.43a10.18,10.18 0 0 1 -1.18,0.29a7.53,7.53 0 0 1 -1.25,0.1a4.92,4.92 0 0 1 -1.21,-0.18a3,3 0 0 1 -1.06,-0.52a4.23,4.23 0 0 1 -1.3,-1.47a4.76,4.76 0 0 1 -0.47,-1.66a6.3,6.3 0 0 1 0.11,-1.73a14.79,14.79 0 0 1 0.46,-1.68c0.19,-0.54 0.38,-1 0.57,-1.51a9.83,9.83 0 0 0 0.44,-1.22a3.37,3.37 0 0 1 0.14,-0.45a0.49,0.49 0 0 1 0.23,-0.26c-0.13,-0.06 -0.12,-0.16 0,-0.32a2.45,2.45 0 0 0 0.33,-0.41a1.23,1.23 0 0 1 0.22,-0.27a0.56,0.56 0 0 1 0.27,-0.12a1.62,1.62 0 0 1 0.48,0.06c0.51,0.12 1.06,0.26 1.67,0.43a6.59,6.59 0 0 1 1.62,0.69a9.38,9.38 0 0 1 0.82,0.56a6.13,6.13 0 0 1 0.88,0.83a5.13,5.13 0 0 1 0.77,1.15a5.21,5.21 0 0 1 0.47,1.56zm-2.57,1.86a8.13,8.13 0 0 0 0,-2.08a8.42,8.42 0 0 0 -0.33,-1.53a4,4 0 0 0 -0.46,-1a5.18,5.18 0 0 0 -0.45,-0.56a1.36,1.36 0 0 0 -0.29,-0.21a3.45,3.45 0 0 0 -0.43,-0.22l-0.46,-0.18a1.87,1.87 0 0 0 -0.39,-0.1a2.35,2.35 0 0 0 -0.4,0l-0.45,0a1.35,1.35 0 0 1 0.6,0.58a1,1 0 0 1 0,0.87c-0.06,0.14 -0.16,0.37 -0.28,0.69s-0.27,0.69 -0.42,1.11s-0.3,0.85 -0.45,1.32s-0.28,0.94 -0.38,1.39a8,8 0 0 0 -0.19,1.29a2.43,2.43 0 0 0 0.13,1a1.53,1.53 0 0 0 1,1a2.17,2.17 0 0 0 1.7,-0.28a6,6 0 0 0 0.83,-0.56a2.27,2.27 0 0 0 0.56,-0.64a3.22,3.22 0 0 0 0.35,-0.82a7,7 0 0 0 0.21,-1.07z" class="cls-1"/>
  <path id="svg_21" d="m404.620003,134.620003a0.94,0.94 0 0 1 0.36,0.32a0.79,0.79 0 0 1 0.15,0.4a1.27,1.27 0 0 1 0,0.39a1.15,1.15 0 0 1 -0.13,0.34c-0.24,0.42 -0.48,0.44 -0.72,0s-0.45,-0.52 -0.65,-0.52l-0.31,0a2.37,2.37 0 0 0 -0.54,0.24a5.47,5.47 0 0 0 -0.76,0.52a8,8 0 0 0 -0.94,0.92a4.74,4.74 0 0 0 -0.91,1.53a9.83,9.83 0 0 0 -0.46,1.73a13.81,13.81 0 0 0 -0.14,1.63c0,0.51 0,0.92 0,1.22a13.53,13.53 0 0 1 0,1.46a2.17,2.17 0 0 1 -0.3,1a0.68,0.68 0 0 1 -0.42,0.35a0.71,0.71 0 0 1 -0.45,0a2,2 0 0 1 -0.46,-0.3a5.5,5.5 0 0 1 -0.42,-0.38l-0.2,-0.23l-0.22,-0.3c-0.07,-0.09 -0.1,-0.16 -0.09,-0.2s0.07,0 0.2,0s0.07,0 0.09,-0.14a2.9,2.9 0 0 0 0.05,-0.51l0,-0.75q0,-0.42 0,-0.87c0,-0.37 0,-0.85 0,-1.43s0.05,-1.16 0.08,-1.73s0.08,-1.11 0.13,-1.6a4.77,4.77 0 0 1 0.18,-1a1.3,1.3 0 0 0 0.08,-0.55a1,1 0 0 0 -0.13,-0.4a0.93,0.93 0 0 0 -0.28,-0.28l-0.3,-0.2a0.53,0.53 0 0 1 -0.17,-0.19a0.68,0.68 0 0 1 -0.07,-0.26a0.33,0.33 0 0 1 0.08,-0.22a0.34,0.34 0 0 1 0.28,-0.07a5.43,5.43 0 0 1 0.83,0.17a2.62,2.62 0 0 1 0.53,0.24a1.42,1.42 0 0 1 0.35,0.34l0.28,0.42a6.61,6.61 0 0 1 2,-1.33a4.5,4.5 0 0 1 1.58,-0.34a2.84,2.84 0 0 1 1.13,0.22l0.69,0.36z" class="cls-1"/>
  <path id="svg_22" d="m427.850003,143.030003a2.85,2.85 0 0 0 0.18,0.46a3.39,3.39 0 0 1 0.2,0.53a1.41,1.41 0 0 1 0,0.54a0.64,0.64 0 0 1 -0.28,0.46a4,4 0 0 1 -0.69,0.41a4.21,4.21 0 0 1 -1,0.34a5.18,5.18 0 0 1 -1.28,0.11a4.61,4.61 0 0 1 -1.45,-0.29a3.71,3.71 0 0 1 -2.21,-2.21a8.08,8.08 0 0 1 -0.36,-4.13c0,-0.13 0.05,-0.27 0.07,-0.41s0,-0.29 0.06,-0.44a3.07,3.07 0 0 1 -0.49,-0.34a1.29,1.29 0 0 1 -0.25,-0.29a0.59,0.59 0 0 1 -0.14,-0.37c0,-0.11 0.16,-0.16 0.45,-0.13l0.61,0c0.11,-0.64 0.22,-1.25 0.33,-1.84s0.2,-1.12 0.29,-1.6s0.17,-0.88 0.23,-1.22a4.66,4.66 0 0 0 0.09,-0.7c0,-0.34 0.05,-0.62 0.06,-0.85a0.54,0.54 0 0 0 -0.33,-0.54c-0.12,-0.08 -0.18,-0.15 -0.18,-0.22a0.22,0.22 0 0 1 0.11,-0.19a0.87,0.87 0 0 1 0.29,-0.12a0.86,0.86 0 0 1 0.39,0a2.31,2.31 0 0 1 1.83,2.55c0,0.32 0,0.66 -0.08,1s-0.09,0.7 -0.15,1s-0.11,0.65 -0.18,0.94s-0.12,0.54 -0.17,0.76c0,0.06 0,0.13 -0.05,0.23a2.73,2.73 0 0 1 -0.06,0.34l0.58,-0.2a4.58,4.58 0 0 0 0.54,-0.28a2,2 0 0 0 0.35,-0.24l0.16,-0.14a0.57,0.57 0 0 1 0.11,-0.11a0.8,0.8 0 0 1 0.27,-0.11l0.43,-0.19a1.33,1.33 0 0 1 0.48,-0.13a0.42,0.42 0 0 1 0.36,0.17a1.14,1.14 0 0 1 0.12,0.69a2.62,2.62 0 0 1 -0.06,0.43a1,1 0 0 1 -0.14,0.35a1.21,1.21 0 0 1 -0.32,0.32a3.38,3.38 0 0 1 -0.57,0.35l-1.18,0.61a5.69,5.69 0 0 1 -1.38,0.53c0,0.4 -0.07,0.82 -0.11,1.24s-0.06,0.83 -0.08,1.21s0,0.74 0,1.06a6.71,6.71 0 0 0 0.06,0.77a3.94,3.94 0 0 0 0.24,0.77a0.94,0.94 0 0 0 0.29,0.37a0.66,0.66 0 0 0 0.37,0.1l0.46,0a2,2 0 0 0 0.92,-0.29a2.14,2.14 0 0 0 0.7,-0.8a1.31,1.31 0 0 1 0.29,-0.39a1.1,1.1 0 0 1 0.25,-0.2a1,1 0 0 1 0.21,-0.1l0.19,-0.08a0.44,0.44 0 0 1 0.37,0c0.1,0.1 0.19,0.24 0.25,0.51z" class="cls-1"/>
 </g>
</svg>