<svg width="1683" height="1128" viewBox="0 0 1683 1128" fill="none" xmlns="http://www.w3.org/2000/svg">
<path d="M0 1128L1683 0V1128H0Z" fill="url(#paint0_linear)"/>
<path d="M867.637 280.096C867.637 282.592 867.349 285.088 866.773 287.584C866.197 290.08 865.285 292.432 864.037 294.64C862.789 296.848 861.205 298.816 859.285 300.544C857.461 302.272 855.205 303.568 852.517 304.432V305.008C854.821 305.488 857.029 306.304 859.141 307.456C861.253 308.512 863.125 310.048 864.757 312.064C866.389 313.984 867.685 316.384 868.645 319.264C869.605 322.048 870.085 325.408 870.085 329.344C870.085 334.528 869.269 339.04 867.637 342.88C866.005 346.624 863.749 349.696 860.869 352.096C858.085 354.496 854.821 356.272 851.077 357.424C847.429 358.576 843.541 359.152 839.413 359.152C838.069 359.152 836.485 359.152 834.661 359.152C832.933 359.152 831.061 359.056 829.045 358.864C827.029 358.768 825.013 358.576 822.997 358.288C821.077 358.096 819.301 357.76 817.669 357.28V258.064C820.549 257.488 823.909 257.008 827.749 256.624C831.685 256.24 835.909 256.048 840.421 256.048C843.685 256.048 846.949 256.384 850.213 257.056C853.477 257.632 856.405 258.784 858.997 260.512C861.589 262.24 863.653 264.688 865.189 267.856C866.821 270.928 867.637 275.008 867.637 280.096ZM840.277 349.216C842.869 349.216 845.269 348.832 847.477 348.064C849.685 347.2 851.605 345.952 853.237 344.32C854.965 342.688 856.309 340.72 857.269 338.416C858.229 336.016 858.709 333.232 858.709 330.064C858.709 326.128 858.085 322.96 856.837 320.56C855.685 318.064 854.149 316.144 852.229 314.8C850.309 313.456 848.101 312.544 845.605 312.064C843.205 311.584 840.709 311.344 838.117 311.344H828.469V348.208C829.045 348.4 829.765 348.544 830.629 348.64C831.589 348.736 832.597 348.832 833.653 348.928C834.805 349.024 835.957 349.12 837.109 349.216C838.261 349.216 839.317 349.216 840.277 349.216ZM834.373 301.984C835.717 301.984 837.253 301.936 838.981 301.84C840.709 301.744 842.149 301.6 843.301 301.408C846.853 299.968 849.877 297.664 852.373 294.496C854.965 291.232 856.261 287.248 856.261 282.544C856.261 279.376 855.829 276.736 854.965 274.624C854.101 272.416 852.901 270.688 851.365 269.44C849.925 268.192 848.197 267.328 846.181 266.848C844.165 266.272 842.053 265.984 839.845 265.984C837.349 265.984 835.093 266.08 833.077 266.272C831.061 266.368 829.525 266.512 828.469 266.704V301.984H834.373ZM924.474 354.4C922.074 356.224 919.338 357.568 916.266 358.432C913.194 359.296 909.978 359.728 906.618 359.728C902.01 359.728 898.122 358.864 894.954 357.136C891.786 355.312 889.194 352.768 887.178 349.504C885.258 346.144 883.818 342.16 882.858 337.552C881.994 332.848 881.562 327.664 881.562 322C881.562 309.712 883.722 300.352 888.042 293.92C892.458 287.488 898.746 284.272 906.906 284.272C910.65 284.272 913.866 284.608 916.554 285.28C919.242 285.952 921.546 286.816 923.466 287.872L920.586 296.944C916.746 294.736 912.57 293.632 908.058 293.632C902.874 293.632 898.938 295.936 896.25 300.544C893.658 305.056 892.362 312.208 892.362 322C892.362 325.936 892.65 329.632 893.226 333.088C893.802 336.544 894.762 339.568 896.106 342.16C897.45 344.656 899.178 346.672 901.29 348.208C903.402 349.648 906.042 350.368 909.21 350.368C911.706 350.368 914.01 349.936 916.122 349.072C918.33 348.208 920.106 347.2 921.45 346.048L924.474 354.4ZM976.724 353.104C974.42 355.216 971.492 356.848 967.94 358C964.388 359.152 960.644 359.728 956.708 359.728C952.196 359.728 948.26 358.864 944.9 357.136C941.636 355.312 938.9 352.768 936.692 349.504C934.58 346.144 932.996 342.16 931.94 337.552C930.98 332.944 930.5 327.76 930.5 322C930.5 309.712 932.756 300.352 937.268 293.92C941.78 287.488 948.164 284.272 956.42 284.272C959.108 284.272 961.748 284.608 964.34 285.28C967.028 285.952 969.428 287.296 971.54 289.312C973.652 291.328 975.332 294.16 976.58 297.808C977.924 301.456 978.596 306.208 978.596 312.064C978.596 313.696 978.5 315.472 978.308 317.392C978.212 319.216 978.068 321.136 977.876 323.152H941.3C941.3 327.28 941.636 331.024 942.308 334.384C942.98 337.744 944.036 340.624 945.476 343.024C946.916 345.328 948.74 347.152 950.948 348.496C953.252 349.744 956.084 350.368 959.444 350.368C962.036 350.368 964.58 349.888 967.076 348.928C969.668 347.968 971.636 346.816 972.98 345.472L976.724 353.104ZM968.66 314.512C968.852 307.312 967.844 302.032 965.636 298.672C963.428 295.312 960.404 293.632 956.564 293.632C952.148 293.632 948.644 295.312 946.052 298.672C943.46 302.032 941.924 307.312 941.444 314.512H968.66ZM938.132 266.704C938.132 264.496 938.66 262.768 939.716 261.52C940.868 260.272 942.404 259.648 944.324 259.648C946.244 259.648 947.732 260.272 948.788 261.52C949.94 262.768 950.516 264.496 950.516 266.704C950.516 268.72 949.94 270.352 948.788 271.6C947.732 272.848 946.244 273.472 944.324 273.472C942.404 273.472 940.868 272.848 939.716 271.6C938.66 270.352 938.132 268.72 938.132 266.704ZM961.028 266.704C961.028 264.496 961.556 262.768 962.612 261.52C963.764 260.272 965.3 259.648 967.22 259.648C969.14 259.648 970.628 260.272 971.684 261.52C972.836 262.768 973.412 264.496 973.412 266.704C973.412 268.72 972.836 270.352 971.684 271.6C970.628 272.848 969.14 273.472 967.22 273.472C965.3 273.472 963.764 272.848 962.612 271.6C961.556 270.352 961.028 268.72 961.028 266.704ZM1076.08 376.288H1068.88L1067.16 358H1024.53L1022.66 376.288H1015.6V348.64H1022.37C1022.95 347.584 1023.72 345.664 1024.68 342.88C1025.73 340 1026.74 336.064 1027.7 331.072C1028.66 325.984 1029.48 319.744 1030.15 312.352C1030.92 304.96 1031.35 296.176 1031.44 286H1067.59V348.64H1076.08V376.288ZM1057.22 348.64V295.36H1040.95C1040.76 299.488 1040.47 304 1040.08 308.896C1039.8 313.792 1039.32 318.688 1038.64 323.584C1037.97 328.384 1037.16 332.992 1036.2 337.408C1035.24 341.824 1034.13 345.568 1032.88 348.64H1057.22ZM1130.01 353.104C1127.7 355.216 1124.77 356.848 1121.22 358C1117.67 359.152 1113.93 359.728 1109.99 359.728C1105.48 359.728 1101.54 358.864 1098.18 357.136C1094.92 355.312 1092.18 352.768 1089.97 349.504C1087.86 346.144 1086.28 342.16 1085.22 337.552C1084.26 332.944 1083.78 327.76 1083.78 322C1083.78 309.712 1086.04 300.352 1090.55 293.92C1095.06 287.488 1101.45 284.272 1109.7 284.272C1112.39 284.272 1115.03 284.608 1117.62 285.28C1120.31 285.952 1122.71 287.296 1124.82 289.312C1126.93 291.328 1128.61 294.16 1129.86 297.808C1131.21 301.456 1131.88 306.208 1131.88 312.064C1131.88 313.696 1131.78 315.472 1131.59 317.392C1131.49 319.216 1131.35 321.136 1131.16 323.152H1094.58C1094.58 327.28 1094.92 331.024 1095.59 334.384C1096.26 337.744 1097.32 340.624 1098.76 343.024C1100.2 345.328 1102.02 347.152 1104.23 348.496C1106.53 349.744 1109.37 350.368 1112.73 350.368C1115.32 350.368 1117.86 349.888 1120.36 348.928C1122.95 347.968 1124.92 346.816 1126.26 345.472L1130.01 353.104ZM1121.94 314.512C1122.13 307.312 1121.13 302.032 1118.92 298.672C1116.71 295.312 1113.69 293.632 1109.85 293.632C1105.43 293.632 1101.93 295.312 1099.33 298.672C1096.74 302.032 1095.21 307.312 1094.73 314.512H1121.94ZM1175.43 295.36H1159.74C1159.45 303.52 1159.06 311.44 1158.58 319.12C1158.1 326.704 1157.24 333.424 1155.99 339.28C1154.84 345.136 1153.16 349.84 1150.95 353.392C1148.74 356.848 1145.82 358.576 1142.17 358.576C1140.54 358.576 1139.14 358.48 1137.99 358.288C1136.84 358.096 1135.78 357.76 1134.82 357.28L1136.41 348.208C1138.42 348.784 1140.2 348.688 1141.74 347.92C1143.37 347.056 1144.76 344.56 1145.91 340.432C1147.06 336.208 1147.98 329.824 1148.65 321.28C1149.42 312.64 1149.94 300.88 1150.23 286H1185.8V358H1175.43V295.36ZM1199.66 322C1199.66 309.04 1201.86 299.536 1206.28 293.488C1210.79 287.344 1217.18 284.272 1225.43 284.272C1234.26 284.272 1240.74 287.392 1244.87 293.632C1249.1 299.872 1251.21 309.328 1251.21 322C1251.21 335.056 1248.95 344.608 1244.44 350.656C1239.93 356.704 1233.59 359.728 1225.43 359.728C1216.6 359.728 1210.07 356.608 1205.85 350.368C1201.72 344.128 1199.66 334.672 1199.66 322ZM1210.46 322C1210.46 326.224 1210.7 330.064 1211.18 333.52C1211.75 336.976 1212.62 339.952 1213.77 342.448C1215.02 344.944 1216.6 346.912 1218.52 348.352C1220.44 349.696 1222.74 350.368 1225.43 350.368C1230.42 350.368 1234.17 348.16 1236.66 343.744C1239.16 339.232 1240.41 331.984 1240.41 322C1240.41 317.872 1240.12 314.08 1239.54 310.624C1239.06 307.072 1238.2 304.048 1236.95 301.552C1235.8 299.056 1234.26 297.136 1232.34 295.792C1230.42 294.352 1228.12 293.632 1225.43 293.632C1220.54 293.632 1216.79 295.888 1214.2 300.4C1211.7 304.912 1210.46 312.112 1210.46 322ZM504.621 408.144C507.309 407.952 510.237 407.712 513.405 407.424C516.573 407.136 520.365 406.992 524.781 406.992C532.557 406.992 538.125 408.48 541.485 411.456C544.845 414.336 546.525 418.752 546.525 424.704C546.525 428.064 545.709 431.328 544.077 434.496C542.541 437.664 539.901 440.064 536.157 441.696V442.272C540.765 443.328 544.029 445.296 545.949 448.176C547.869 450.96 548.829 454.8 548.829 459.696C548.829 467.184 546.621 472.608 542.205 475.968C537.789 479.328 531.213 481.008 522.477 481.008C519.213 481.008 516.093 480.864 513.117 480.576C510.141 480.384 507.309 480.144 504.621 479.856V408.144ZM514.989 471.072C516.429 471.264 517.773 471.408 519.021 471.504C520.365 471.6 521.997 471.648 523.917 471.648C528.813 471.648 532.365 470.64 534.573 468.624C536.877 466.608 538.029 463.344 538.029 458.832C538.029 455.376 537.069 452.544 535.149 450.336C533.229 448.032 529.725 446.88 524.637 446.88H514.989V471.072ZM525.645 438.672C526.989 438.672 528.285 438.384 529.533 437.808C530.781 437.136 531.885 436.272 532.845 435.216C533.901 434.16 534.717 432.96 535.293 431.616C535.869 430.176 536.157 428.688 536.157 427.152C536.157 423.408 535.245 420.672 533.421 418.944C531.693 417.216 528.669 416.352 524.349 416.352C522.045 416.352 520.221 416.4 518.877 416.496C517.533 416.592 516.237 416.688 514.989 416.784V438.672H525.645ZM593.215 408.144C595.903 407.952 598.831 407.712 601.999 407.424C605.167 407.136 608.959 406.992 613.375 406.992C621.151 406.992 626.719 408.48 630.079 411.456C633.439 414.336 635.119 418.752 635.119 424.704C635.119 428.064 634.303 431.328 632.671 434.496C631.135 437.664 628.495 440.064 624.751 441.696V442.272C629.359 443.328 632.623 445.296 634.543 448.176C636.463 450.96 637.423 454.8 637.423 459.696C637.423 467.184 635.215 472.608 630.799 475.968C626.383 479.328 619.807 481.008 611.071 481.008C607.807 481.008 604.687 480.864 601.711 480.576C598.735 480.384 595.903 480.144 593.215 479.856V408.144ZM603.583 471.072C605.023 471.264 606.367 471.408 607.615 471.504C608.959 471.6 610.591 471.648 612.511 471.648C617.407 471.648 620.959 470.64 623.167 468.624C625.471 466.608 626.623 463.344 626.623 458.832C626.623 455.376 625.663 452.544 623.743 450.336C621.823 448.032 618.319 446.88 613.231 446.88H603.583V471.072ZM614.239 438.672C615.583 438.672 616.879 438.384 618.127 437.808C619.375 437.136 620.479 436.272 621.439 435.216C622.495 434.16 623.311 432.96 623.887 431.616C624.463 430.176 624.751 428.688 624.751 427.152C624.751 423.408 623.839 420.672 622.015 418.944C620.287 417.216 617.263 416.352 612.943 416.352C610.639 416.352 608.815 416.4 607.471 416.496C606.127 416.592 604.831 416.688 603.583 416.784V438.672H614.239ZM703.709 498.288H696.509L694.781 480H652.157L650.285 498.288H643.229V470.64H649.997C650.573 469.584 651.341 467.664 652.301 464.88C653.357 462 654.365 458.064 655.325 453.072C656.285 447.984 657.101 441.744 657.773 434.352C658.541 426.96 658.973 418.176 659.069 408H695.213V470.64H703.709V498.288ZM684.845 470.64V417.36H668.573C668.381 421.488 668.093 426 667.709 430.896C667.421 435.792 666.941 440.688 666.269 445.584C665.597 450.384 664.781 454.992 663.821 459.408C662.861 463.824 661.757 467.568 660.509 470.64H684.845ZM711.406 444C711.406 431.04 713.614 421.536 718.03 415.488C722.542 409.344 728.926 406.272 737.182 406.272C746.014 406.272 752.494 409.392 756.622 415.632C760.846 421.872 762.958 431.328 762.958 444C762.958 457.056 760.702 466.608 756.19 472.656C751.678 478.704 745.342 481.728 737.182 481.728C728.35 481.728 721.822 478.608 717.598 472.368C713.47 466.128 711.406 456.672 711.406 444ZM722.206 444C722.206 448.224 722.446 452.064 722.926 455.52C723.502 458.976 724.366 461.952 725.518 464.448C726.766 466.944 728.35 468.912 730.27 470.352C732.19 471.696 734.494 472.368 737.182 472.368C742.174 472.368 745.918 470.16 748.414 465.744C750.91 461.232 752.158 453.984 752.158 444C752.158 439.872 751.87 436.08 751.294 432.624C750.814 429.072 749.95 426.048 748.702 423.552C747.55 421.056 746.014 419.136 744.094 417.792C742.174 416.352 739.87 415.632 737.182 415.632C732.286 415.632 728.542 417.888 725.95 422.4C723.454 426.912 722.206 434.112 722.206 444ZM789.168 443.136L770.16 408H782.544L793.2 428.592L796.08 436.656L799.104 428.592L810.048 408H821.424L802.272 442.56L822.576 480H810.768L798.672 457.392L795.504 448.752L792.192 457.392L780.096 480H768.72L789.168 443.136ZM869.104 447.888H844.192V480H833.824V408H844.192V438.528H869.104V408H879.472V480H869.104V447.888ZM893.094 444C893.094 431.04 895.302 421.536 899.718 415.488C904.23 409.344 910.614 406.272 918.87 406.272C927.702 406.272 934.182 409.392 938.31 415.632C942.534 421.872 944.646 431.328 944.646 444C944.646 457.056 942.39 466.608 937.878 472.656C933.366 478.704 927.03 481.728 918.87 481.728C910.038 481.728 903.51 478.608 899.286 472.368C895.158 466.128 893.094 456.672 893.094 444ZM903.894 444C903.894 448.224 904.134 452.064 904.614 455.52C905.19 458.976 906.054 461.952 907.206 464.448C908.454 466.944 910.038 468.912 911.958 470.352C913.878 471.696 916.182 472.368 918.87 472.368C923.862 472.368 927.606 470.16 930.102 465.744C932.598 461.232 933.846 453.984 933.846 444C933.846 439.872 933.558 436.08 932.982 432.624C932.502 429.072 931.638 426.048 930.39 423.552C929.238 421.056 927.702 419.136 925.782 417.792C923.862 416.352 921.558 415.632 918.87 415.632C913.974 415.632 910.23 417.888 907.638 422.4C905.142 426.912 903.894 434.112 903.894 444ZM958.418 408.144C961.106 407.952 964.034 407.712 967.202 407.424C970.37 407.136 974.162 406.992 978.578 406.992C986.354 406.992 991.922 408.48 995.282 411.456C998.642 414.336 1000.32 418.752 1000.32 424.704C1000.32 428.064 999.506 431.328 997.874 434.496C996.338 437.664 993.698 440.064 989.954 441.696V442.272C994.562 443.328 997.826 445.296 999.746 448.176C1001.67 450.96 1002.63 454.8 1002.63 459.696C1002.63 467.184 1000.42 472.608 996.002 475.968C991.586 479.328 985.01 481.008 976.274 481.008C973.01 481.008 969.89 480.864 966.914 480.576C963.938 480.384 961.106 480.144 958.418 479.856V408.144ZM968.786 471.072C970.226 471.264 971.57 471.408 972.818 471.504C974.162 471.6 975.794 471.648 977.714 471.648C982.61 471.648 986.162 470.64 988.37 468.624C990.674 466.608 991.826 463.344 991.826 458.832C991.826 455.376 990.866 452.544 988.946 450.336C987.026 448.032 983.522 446.88 978.434 446.88H968.786V471.072ZM979.442 438.672C980.786 438.672 982.082 438.384 983.33 437.808C984.578 437.136 985.682 436.272 986.642 435.216C987.698 434.16 988.514 432.96 989.09 431.616C989.666 430.176 989.954 428.688 989.954 427.152C989.954 423.408 989.042 420.672 987.218 418.944C985.49 417.216 982.466 416.352 978.146 416.352C975.842 416.352 974.018 416.4 972.674 416.496C971.33 416.592 970.034 416.688 968.786 416.784V438.672H979.442ZM1059.55 475.104C1057.25 477.216 1054.32 478.848 1050.77 480C1047.22 481.152 1043.47 481.728 1039.54 481.728C1035.02 481.728 1031.09 480.864 1027.73 479.136C1024.46 477.312 1021.73 474.768 1019.52 471.504C1017.41 468.144 1015.82 464.16 1014.77 459.552C1013.81 454.944 1013.33 449.76 1013.33 444C1013.33 431.712 1015.58 422.352 1020.1 415.92C1024.61 409.488 1030.99 406.272 1039.25 406.272C1041.94 406.272 1044.58 406.608 1047.17 407.28C1049.86 407.952 1052.26 409.296 1054.37 411.312C1056.48 413.328 1058.16 416.16 1059.41 419.808C1060.75 423.456 1061.42 428.208 1061.42 434.064C1061.42 435.696 1061.33 437.472 1061.14 439.392C1061.04 441.216 1060.9 443.136 1060.7 445.152H1024.13C1024.13 449.28 1024.46 453.024 1025.14 456.384C1025.81 459.744 1026.86 462.624 1028.3 465.024C1029.74 467.328 1031.57 469.152 1033.78 470.496C1036.08 471.744 1038.91 472.368 1042.27 472.368C1044.86 472.368 1047.41 471.888 1049.9 470.928C1052.5 469.968 1054.46 468.816 1055.81 467.472L1059.55 475.104ZM1051.49 436.512C1051.68 429.312 1050.67 424.032 1048.46 420.672C1046.26 417.312 1043.23 415.632 1039.39 415.632C1034.98 415.632 1031.47 417.312 1028.88 420.672C1026.29 424.032 1024.75 429.312 1024.27 436.512H1051.49ZM1111.26 447.888H1086.35V480H1075.98V408H1086.35V438.528H1111.26V408H1121.63V480H1111.26V447.888ZM1174.27 438.528L1175.14 427.584H1174.56L1169.52 439.68L1145.19 480H1138.42V408H1148.79V450.768L1147.92 461.28H1148.5L1153.25 449.472L1177.87 408H1184.64V480H1174.27V438.528ZM1237.56 438.528L1238.42 427.584H1237.84L1232.8 439.68L1208.47 480H1201.7V408H1212.07V450.768L1211.2 461.28H1211.78L1216.53 449.472L1241.16 408H1247.92V480H1237.56V438.528ZM646.086 560.528L646.95 549.584H646.374L641.334 561.68L616.998 602H610.23V530H620.598V572.768L619.734 583.28H620.31L625.062 571.472L649.686 530H656.454V602H646.086V560.528ZM738.587 539.36H714.395V602H704.027V530H748.955V602H738.587V539.36ZM762.734 566C762.734 553.04 764.942 543.536 769.358 537.488C773.87 531.344 780.254 528.272 788.51 528.272C797.342 528.272 803.822 531.392 807.95 537.632C812.174 543.872 814.286 553.328 814.286 566C814.286 579.056 812.03 588.608 807.518 594.656C803.006 600.704 796.67 603.728 788.51 603.728C779.678 603.728 773.15 600.608 768.926 594.368C764.798 588.128 762.734 578.672 762.734 566ZM773.534 566C773.534 570.224 773.774 574.064 774.254 577.52C774.83 580.976 775.694 583.952 776.846 586.448C778.094 588.944 779.678 590.912 781.598 592.352C783.518 593.696 785.822 594.368 788.51 594.368C793.502 594.368 797.246 592.16 799.742 587.744C802.238 583.232 803.486 575.984 803.486 566C803.486 561.872 803.198 558.08 802.622 554.624C802.142 551.072 801.278 548.048 800.03 545.552C798.878 543.056 797.342 541.136 795.422 539.792C793.502 538.352 791.198 537.632 788.51 537.632C783.614 537.632 779.87 539.888 777.278 544.4C774.782 548.912 773.534 556.112 773.534 566ZM880.475 620.288H873.275L871.547 602H828.923L827.051 620.288H819.995V592.64H826.763C827.339 591.584 828.107 589.664 829.066 586.88C830.123 584 831.131 580.064 832.091 575.072C833.051 569.984 833.867 563.744 834.539 556.352C835.307 548.96 835.739 540.176 835.835 530H871.979V592.64H880.475V620.288ZM861.611 592.64V539.36H845.339C845.147 543.488 844.859 548 844.475 552.896C844.187 557.792 843.707 562.688 843.035 567.584C842.363 572.384 841.547 576.992 840.587 581.408C839.627 585.824 838.523 589.568 837.275 592.64H861.611ZM946.287 620.288H939.087L937.359 602H894.735L892.863 620.288H885.807V592.64H892.575C893.151 591.584 893.919 589.664 894.879 586.88C895.935 584 896.943 580.064 897.903 575.072C898.863 569.984 899.679 563.744 900.351 556.352C901.119 548.96 901.551 540.176 901.647 530H937.791V592.64H946.287V620.288ZM927.423 592.64V539.36H911.151C910.959 543.488 910.671 548 910.287 552.896C909.999 557.792 909.519 562.688 908.847 567.584C908.175 572.384 907.359 576.992 906.399 581.408C905.439 585.824 904.335 589.568 903.087 592.64H927.423ZM1000.21 597.104C997.904 599.216 994.976 600.848 991.424 602C987.872 603.152 984.128 603.728 980.192 603.728C975.68 603.728 971.744 602.864 968.384 601.136C965.12 599.312 962.384 596.768 960.176 593.504C958.064 590.144 956.48 586.16 955.424 581.552C954.464 576.944 953.984 571.76 953.984 566C953.984 553.712 956.24 544.352 960.752 537.92C965.264 531.488 971.648 528.272 979.904 528.272C982.592 528.272 985.232 528.608 987.824 529.28C990.512 529.952 992.912 531.296 995.024 533.312C997.136 535.328 998.816 538.16 1000.06 541.808C1001.41 545.456 1002.08 550.208 1002.08 556.064C1002.08 557.696 1001.98 559.472 1001.79 561.392C1001.7 563.216 1001.55 565.136 1001.36 567.152H964.784C964.784 571.28 965.12 575.024 965.792 578.384C966.464 581.744 967.52 584.624 968.96 587.024C970.4 589.328 972.224 591.152 974.432 592.496C976.736 593.744 979.568 594.368 982.928 594.368C985.52 594.368 988.064 593.888 990.56 592.928C993.152 591.968 995.12 590.816 996.464 589.472L1000.21 597.104ZM992.144 558.512C992.336 551.312 991.328 546.032 989.12 542.672C986.912 539.312 983.888 537.632 980.048 537.632C975.632 537.632 972.128 539.312 969.536 542.672C966.944 546.032 965.408 551.312 964.928 558.512H992.144ZM1016.64 530H1023.98L1025.56 537.776H1026.14C1029.69 531.44 1035.26 528.272 1042.84 528.272C1050.43 528.272 1056.09 531.104 1059.84 536.768C1063.68 542.432 1065.6 551.696 1065.6 564.56C1065.6 570.608 1064.97 576.08 1063.72 580.976C1062.48 585.776 1060.7 589.904 1058.4 593.36C1056.09 596.72 1053.26 599.312 1049.9 601.136C1046.64 602.864 1042.99 603.728 1038.96 603.728C1036.17 603.728 1033.96 603.536 1032.33 603.152C1030.7 602.864 1028.92 602.192 1027 601.136V630.8H1016.64V530ZM1027 590.624C1028.35 591.776 1029.84 592.688 1031.47 593.36C1033.2 594.032 1035.45 594.368 1038.24 594.368C1043.32 594.368 1047.36 591.776 1050.33 586.592C1053.31 581.408 1054.8 574.016 1054.8 564.416C1054.8 560.384 1054.51 556.736 1053.93 553.472C1053.45 550.208 1052.64 547.424 1051.48 545.12C1050.33 542.72 1048.84 540.896 1047.02 539.648C1045.29 538.304 1043.13 537.632 1040.54 537.632C1033.53 537.632 1029.02 541.904 1027 550.448V590.624ZM1097.81 570.176L1081.68 602H1070.02L1087.73 569.024L1091.62 564.704L1085.71 559.232L1071.31 530H1082.26L1097.23 561.104H1103.14V530H1113.5V562.544L1118.83 560.528L1133.81 530H1144.61L1129.49 559.232L1124.88 563.84L1130.78 569.6L1147.34 602H1135.39L1119.26 569.6H1113.5V602H1103.14V568.16L1097.81 570.176ZM1171.55 569.6H1166.22V602H1155.86V530H1166.22V562.544L1171.12 560.528L1188.69 530H1199.78L1182.64 558.944L1177.6 563.696L1183.79 569.456L1202.22 602H1189.84L1171.55 569.6ZM1253.47 597.104C1251.17 599.216 1248.24 600.848 1244.69 602C1241.14 603.152 1237.39 603.728 1233.46 603.728C1228.95 603.728 1225.01 602.864 1221.65 601.136C1218.39 599.312 1215.65 596.768 1213.44 593.504C1211.33 590.144 1209.75 586.16 1208.69 581.552C1207.73 576.944 1207.25 571.76 1207.25 566C1207.25 553.712 1209.51 544.352 1214.02 537.92C1218.53 531.488 1224.91 528.272 1233.17 528.272C1235.86 528.272 1238.5 528.608 1241.09 529.28C1243.78 529.952 1246.18 531.296 1248.29 533.312C1250.4 535.328 1252.08 538.16 1253.33 541.808C1254.67 545.456 1255.35 550.208 1255.35 556.064C1255.35 557.696 1255.25 559.472 1255.06 561.392C1254.96 563.216 1254.82 565.136 1254.63 567.152H1218.05C1218.05 571.28 1218.39 575.024 1219.06 578.384C1219.73 581.744 1220.79 584.624 1222.23 587.024C1223.67 589.328 1225.49 591.152 1227.7 592.496C1230 593.744 1232.83 594.368 1236.19 594.368C1238.79 594.368 1241.33 593.888 1243.83 592.928C1246.42 591.968 1248.39 590.816 1249.73 589.472L1253.47 597.104ZM1245.41 558.512C1245.6 551.312 1244.59 546.032 1242.39 542.672C1240.18 539.312 1237.15 537.632 1233.31 537.632C1228.9 537.632 1225.39 539.312 1222.8 542.672C1220.21 546.032 1218.67 551.312 1218.19 558.512H1245.41ZM1267.02 595.52C1267.02 592.832 1267.65 590.816 1268.89 589.472C1270.24 588.128 1272.01 587.456 1274.22 587.456C1276.43 587.456 1278.16 588.128 1279.41 589.472C1280.75 590.816 1281.42 592.832 1281.42 595.52C1281.42 598.304 1280.75 600.368 1279.41 601.712C1278.16 603.056 1276.43 603.728 1274.22 603.728C1272.01 603.728 1270.24 603.056 1268.89 601.712C1267.65 600.368 1267.02 598.304 1267.02 595.52Z" fill="black"/>
<rect x="0.5" y="0.5" width="1682" height="1127" stroke="white"/>
<defs>
<linearGradient id="paint0_linear" x1="0" y1="564" x2="1683" y2="564" gradientUnits="userSpaceOnUse">
<stop stop-color="#ED6C5B"/>
<stop offset="0.41" stop-color="#ED6E5D"/>
<stop offset="0.55" stop-color="#EE7464"/>
<stop offset="0.66" stop-color="#EF7E6F"/>
<stop offset="0.74" stop-color="#F18E80"/>
<stop offset="0.82" stop-color="#F4A196"/>
<stop offset="0.88" stop-color="#F7BAB2"/>
<stop offset="0.94" stop-color="#FAD7D2"/>
<stop offset="0.99" stop-color="#FEF7F6"/>
<stop offset="1" stop-color="white"/>
</linearGradient>
</defs>
</svg>
