<svg id="Ebene_1" data-name="Ebene 1" xmlns="http://www.w3.org/2000/svg" xmlns:xlink="http://www.w3.org/1999/xlink" width="1920.5319" height="1920.5319" viewBox="0 0 1920.5319 1920.5319"><defs><style>.cls-1{fill:url(#Unbenannter_Verlauf_159);}.cls-2{fill:#00c154;}.cls-3{fill:url(#Unbenannter_Verlauf_127);}.cls-4{fill:url(#Unbenannter_Verlauf_137);}.cls-5{font-size:290.4673px;font-family:PTSans-Regular, PT Sans;}</style><linearGradient id="Unbenannter_Verlauf_159" x1="7210.569" y1="8225.3544" x2="7177.051" y2="6305.1089" gradientTransform="matrix(0, 1, -1, 0, 14464.731, 5.6897)" gradientUnits="userSpaceOnUse"><stop offset="0.0726" stop-color="#fff" stop-opacity="0"/><stop offset="0.1788"/></linearGradient><linearGradient id="Unbenannter_Verlauf_127" x1="7218.4271" y1="7983.0917" x2="7212.9815" y2="7671.1137" gradientTransform="matrix(0.7071, 0.7071, -0.7071, 0.7071, 1010.768, -9263.8203)" gradientUnits="userSpaceOnUse"><stop offset="0" stop-color="#9c9c9c"/><stop offset="0.5419" stop-color="#fff"/></linearGradient><linearGradient id="Unbenannter_Verlauf_137" x1="7180.9269" y1="8003.3097" x2="7210.569" y2="6305.1089" gradientTransform="matrix(0.7071, 0.7071, -0.7071, 0.7071, 7250.0021, -3024.5862)" gradientUnits="userSpaceOnUse"><stop offset="0" stop-color="#d15c4d"/><stop offset="0.324" stop-color="#f86c59"/></linearGradient></defs><title>191230_01_DeineMeinung</title><circle class="cls-1" cx="7199.5" cy="7199.5" r="960.2659" transform="translate(-9221.3646 960.2659) rotate(-45)"/><path class="cls-2" d="M7878.5106,7878.5106c-168.38,168.38-383.7331,261.1562-603.8776,278.33-270.1506,21.0744-84.882-193.3189-462.0182-570.455-302.0474-302.0475-575.7459-147.38-573.3354-396.2442,2.35-242.6245,96.0866-484.5283,281.21-669.6516,375.0071-375.0072,983.0139-375.0071,1358.0211,0S8253.5178,7503.5035,7878.5106,7878.5106Z" transform="translate(-6239.234 -6239.2341)"/><polygon class="cls-3" points="1100.002 1688.541 263.209 851.748 42.54 1072.416 900.096 1888.447 1100.002 1688.541"/><path class="cls-4" d="M7878.5106,7878.5106c-168.38,168.38-383.7331,261.1562-603.8776,278.33-270.1506,21.0744-84.882-193.3189-462.0182-570.455-302.0474-302.0475-575.7459-147.38-573.3354-396.2442,2.35-242.6245,96.0866-484.5283,281.21-669.6516,375.0071-375.0072,983.0139-375.0071,1358.0211,0S8253.5178,7503.5035,7878.5106,7878.5106Z" transform="translate(-6239.234 -6239.2341)"/><text class="cls-5" transform="translate(914.274 566.981)">deine<tspan x="-397.3486" y="303.5381">Meinung</tspan></text></svg>