<svg width="239" height="86" viewBox="0 0 239 86" fill="none" xmlns="http://www.w3.org/2000/svg">
<g clip-path="url(#clip0)">
<path d="M32.3246 3.31466C32.9266 3.6197 33.443 4.06752 33.8281 4.61819C34.1661 5.10813 34.3848 5.66905 34.467 6.2569C34.5427 6.80164 34.53 7.35484 34.4295 7.89561C34.3416 8.38326 34.1632 8.85051 33.9032 9.27362C32.9 11.0125 31.8977 11.087 30.8963 9.49708C29.9437 8.05742 29.0416 7.33739 28.1901 7.33696C27.7574 7.36665 27.3291 7.44154 26.9123 7.56042C26.1228 7.78882 25.3652 8.11414 24.6571 8.52875C23.5491 9.16567 22.4935 9.88793 21.4998 10.6889C20.085 11.837 18.7767 13.1083 17.5908 14.4877C15.9347 16.3287 14.6465 18.4646 13.7946 20.7819C12.9319 23.0855 12.3024 25.4684 11.9152 27.8954C11.5527 30.1253 11.3517 32.3781 11.3138 34.6364C11.2879 36.7477 11.3004 38.4237 11.3514 39.6643C11.4562 41.6744 11.4436 43.6889 11.3138 45.6976C11.2183 47.0916 10.7934 48.4439 10.0735 49.6454C9.52134 50.4891 8.93233 50.9733 8.30671 51.0979C7.67212 51.2203 7.01472 51.1422 6.42738 50.8744C5.73236 50.5578 5.08686 50.1439 4.51065 49.6454C3.85872 49.0983 3.2824 48.5769 2.78166 48.0811C2.48716 47.7747 2.21104 47.4513 1.95475 47.1128C1.6035 46.6659 1.29028 46.2562 1.01509 45.8838C0.799999 45.6606 0.667529 45.3718 0.639218 45.0644C0.663851 44.8911 0.952014 44.9531 1.50371 45.2506C1.65405 45.3508 1.77847 45.1518 1.87958 44.6547C1.99764 43.9655 2.06048 43.2681 2.06751 42.5691C2.09209 41.6752 2.09209 40.6449 2.06751 39.4779C2.04157 38.3118 2.00399 37.1076 1.95475 35.8653C1.90418 34.3267 1.91672 32.3653 1.99234 29.9808C2.06755 27.5972 2.18028 25.2136 2.33062 22.8301C2.48096 20.4465 2.65638 18.2491 2.85683 16.238C3.05644 14.2269 3.30699 12.824 3.60857 12.0295C3.88591 11.3054 4.00133 10.5302 3.94685 9.7576C3.88517 9.1764 3.69251 8.61638 3.38305 8.11889C3.09394 7.65922 2.70966 7.26566 2.25545 6.96434C1.80443 6.66639 1.37837 6.39328 0.977498 6.14498C0.68478 5.94968 0.450964 5.67937 0.300938 5.36287C0.111836 5.03313 0.00848811 4.66198 0.000244694 4.28281C-0.00619872 3.95302 0.11482 3.63324 0.338525 3.38896C0.495955 3.2529 0.683324 3.15503 0.885599 3.10331C1.08787 3.05158 1.29949 3.04744 1.50371 3.09102C2.66067 3.23843 3.80427 3.47502 4.9241 3.79864C5.70717 4.02933 6.45364 4.36783 7.14171 4.80422C7.71081 5.17143 8.20759 5.63841 8.60759 6.18223C8.98348 6.70364 9.37186 7.28708 9.77278 7.93267C12.8289 5.20237 15.6105 3.36502 18.1172 2.42063C20.6225 1.47798 22.8151 1.01865 24.6949 1.04262C26.3185 1.01818 27.93 1.32232 29.4308 1.93647C30.7085 2.50807 31.6731 2.96749 32.3246 3.31466Z" fill="black"/>
<path d="M43.9608 24.5434C46.119 24.4281 48.2417 23.9495 50.2378 23.1281C51.9736 22.4177 53.6046 21.4781 55.0865 20.3349C56.3347 19.378 57.4252 18.2346 58.3189 16.9457C59.0181 15.9901 59.5049 14.8985 59.7472 13.7428C59.9789 12.4757 60.1171 11.1937 60.1607 9.90671C60.2379 8.95875 59.9566 8.0162 59.3713 7.26242C58.8192 6.61775 58.3305 6.54325 57.9055 7.03896C57.2171 7.78544 56.4761 8.48243 55.6878 9.1246C55.0865 9.62163 54.2846 10.3665 53.2823 11.3592C52.279 12.3533 51.2516 13.4582 50.2002 14.6739C49.1477 15.8914 48.1329 17.1949 47.1557 18.5844C46.2374 19.8728 45.4445 21.2445 44.7877 22.6812C44.2355 23.9732 43.6592 25.3016 43.0587 26.6663C42.4712 27.9912 41.9936 29.3613 41.6304 30.7631C41.2812 32.1147 41.092 33.502 41.0666 34.8971C41.0477 36.3256 41.316 37.7436 41.8559 39.0684C42.3193 40.1145 42.9264 41.092 43.6601 41.9734C44.5176 43.0094 45.6131 43.8267 46.855 44.3569C48.4005 44.9916 50.071 45.2717 51.7412 45.1763C53.6698 45.1275 55.9626 44.5316 58.6196 43.3886C60.8748 42.3959 62.4284 41.651 63.2804 41.154C63.9147 40.8126 64.5076 40.4002 65.0471 39.925C65.3715 39.6043 65.6498 39.2409 65.874 38.8449C66.0996 38.4481 66.6884 37.877 67.6406 37.1317C69.5445 35.5932 70.9728 34.6745 71.9255 34.3757C72.8768 34.0777 73.0522 34.475 72.4517 35.5675C72.0273 36.2766 71.7464 37.0609 71.6248 37.8766C71.4744 38.7704 71.299 39.6642 71.0986 40.5581C70.8958 41.4574 70.5933 42.3317 70.1965 43.1651C69.7846 44.0219 69.1647 44.7641 68.3923 45.3253C67.3853 46.007 66.3156 46.5931 65.1975 47.0757C63.8534 47.6713 62.4725 48.1813 61.0629 48.6027C59.5701 49.0526 58.0514 49.4133 56.5149 49.6827C55.0781 49.9485 53.6135 50.0361 52.1549 49.9435C50.2894 49.7924 48.4407 49.4809 46.6296 49.0124C44.8206 48.5485 43.0778 47.8602 41.4427 46.964C39.8026 46.0613 38.3284 44.8902 37.0826 43.5003C35.7551 42.0028 34.7224 40.2724 34.0381 38.3982C33.269 36.3299 32.8253 34.1567 32.7226 31.9549C32.5958 29.6787 32.6965 27.3958 33.0233 25.1393C33.3325 22.9693 33.8614 20.8357 34.6019 18.7707C35.2333 16.953 36.0785 15.2154 37.1202 13.5938C38.5098 11.3857 40.0946 9.30426 41.8561 7.37415C42.9825 6.16719 44.1879 5.03501 45.4644 3.985C46.4663 3.19133 47.2556 2.60789 47.8324 2.23455C48.3201 1.97246 48.6847 1.53112 48.8474 1.00552C48.9046 0.778309 49.0275 0.572731 49.2011 0.413905C49.3748 0.255079 49.5914 0.149962 49.8245 0.111674C50.4165 -0.0375502 51.0367 -0.0375502 51.6287 0.111674C52.5149 0.295486 53.3828 0.557221 54.2221 0.893787C55.3497 1.31632 56.5149 1.76325 57.7177 2.23455C58.9205 2.7072 60.0481 3.16653 61.1005 3.61256C62.1529 4.05948 62.9047 4.38225 63.3557 4.58089C64.9381 5.21561 66.261 6.35606 67.1144 7.82107C67.9608 9.27158 68.4861 10.8839 68.6554 12.551C68.8298 14.2502 68.6897 15.9667 68.242 17.6161C67.8403 19.2107 67.068 20.6901 65.9868 21.9364C64.3465 23.8062 62.3713 25.3594 60.1608 26.5173C58.3016 27.4808 56.2954 28.135 54.2221 28.454C52.4391 28.7302 50.6218 28.705 48.8473 28.3795C47.3963 28.1298 45.9984 27.6387 44.7127 26.927C44.0783 26.6074 43.574 26.0814 43.2844 25.4372C43.0835 24.8914 43.3089 24.5935 43.9608 24.5434Z" fill="black"/>
<path d="M89.6867 19.4783C89.6867 20.819 90.4009 22.1225 91.8291 23.3888C93.4377 24.7945 95.1324 26.1006 96.9033 27.2994C98.8579 28.6401 100.825 30.0181 102.804 31.4334C104.609 32.6745 106.175 34.2262 107.428 36.0145C108.529 37.6044 109.043 39.094 108.969 40.4836C108.912 41.8207 108.468 43.1135 107.691 44.2079C106.846 45.3605 105.755 46.3142 104.496 47.0012C103.165 47.7616 101.753 48.3737 100.286 48.8261C97.3686 49.6714 94.251 49.5405 91.4159 48.4537C88.4582 47.3621 85.8271 45.4007 83.5227 42.5692C81.6669 40.3244 79.684 38.1857 77.5838 36.1633C76.338 35.0395 75.1583 33.8457 74.0505 32.588C73.7841 32.3023 73.5908 31.9574 73.4867 31.5824C73.4749 31.5383 73.4726 31.4922 73.4797 31.4472C73.4868 31.4021 73.5031 31.359 73.5278 31.3206C73.5525 31.2821 73.5851 31.249 73.6233 31.2235C73.6615 31.1981 73.7045 31.1809 73.7498 31.1727C73.9852 31.1236 74.2284 31.1236 74.4639 31.1727C74.743 31.2242 75.0103 31.3251 75.2532 31.4707C75.6587 31.7327 76.0478 32.0187 76.4184 32.3273C76.9446 32.7498 77.5585 33.2215 78.2602 33.7425C78.9614 34.2639 79.7131 34.8102 80.5154 35.3812C81.3163 35.9527 82.1432 36.4865 82.9961 36.9827C84.7641 38.0765 86.6732 38.9284 88.6717 39.5152C90.1162 39.9261 91.6052 40.1637 93.1069 40.2229C94.1853 40.273 95.2646 40.147 96.3018 39.8503C97.0176 39.6288 97.7203 39.3678 98.4066 39.0683C99.4591 38.6214 99.3714 37.6654 98.1435 36.2004C96.9148 34.7364 94.3463 32.7376 90.4381 30.2042C88.3488 28.936 86.472 27.3528 84.8752 25.5115C83.6977 24.1345 82.7579 22.574 82.0938 20.8933C81.569 19.5341 81.2645 18.1011 81.1917 16.6476C81.1375 15.4554 81.1626 14.2611 81.2669 13.0722C81.517 10.5396 82.2061 8.49126 83.3342 6.92702C84.2921 5.54349 85.4437 4.302 86.7546 3.23991C87.0407 3.02202 87.2723 2.74164 87.4311 2.42056C87.5041 2.22115 87.6053 2.03303 87.7318 1.86191C87.8316 1.73861 88.0195 1.7129 88.2956 1.78742C88.5704 1.86191 89.0841 2.04814 89.8367 2.34607C90.8172 2.74214 91.8214 3.07798 92.8436 3.35164C94.2965 3.77416 95.8752 4.25832 97.5795 4.80414C99.2826 5.35126 100.949 5.92232 102.579 6.51734C103.921 6.97079 105.197 7.59687 106.375 8.37951C107.878 9.47243 108.843 10.3911 109.269 11.1355C109.694 11.8805 109.506 12.675 108.705 13.5191C108.29 13.9469 107.725 14.2003 107.127 14.2267C106.4 14.3007 105.667 14.2756 104.947 14.1523C104.216 14.0345 103.499 13.8474 102.804 13.5936C102.261 13.4117 101.743 13.1613 101.263 12.8487C100.611 12.4018 100.047 12.017 99.5718 11.6942C99.1006 11.3794 98.7446 10.9222 98.557 10.3907C98.3055 9.69588 98.0048 9.41034 97.6549 9.53406C97.1088 9.75339 96.581 10.0149 96.0762 10.3162C95.5747 10.6642 94.9607 11.0615 94.2345 11.508C93.4712 11.9848 92.7759 12.561 92.1672 13.2212C91.4707 13.9844 90.8999 14.8517 90.4758 15.791C89.9666 16.9554 89.6982 18.2092 89.6867 19.4783Z" fill="black"/>
<path d="M130.459 19.4783C130.459 20.819 131.173 22.1225 132.601 23.3888C134.21 24.7945 135.904 26.1005 137.675 27.2994C139.63 28.6401 141.597 30.0181 143.577 31.4334C145.381 32.6745 146.947 34.2262 148.2 36.0145C149.301 37.6044 149.815 39.094 149.741 40.4836C149.684 41.8207 149.24 43.1135 148.463 44.2079C147.618 45.3605 146.527 46.3142 145.268 47.0012C143.937 47.7616 142.525 48.3737 141.058 48.8261C138.141 49.6714 135.023 49.5405 132.188 48.4537C129.23 47.3621 126.599 45.4007 124.295 42.5692C122.439 40.3244 120.456 38.1857 118.356 36.1633C117.11 35.0395 115.93 33.8457 114.823 32.588C114.556 32.3023 114.363 31.9574 114.259 31.5824C114.247 31.5383 114.245 31.4922 114.252 31.4472C114.259 31.4021 114.275 31.359 114.3 31.3206C114.325 31.2821 114.357 31.249 114.395 31.2235C114.434 31.1981 114.477 31.1809 114.522 31.1727C114.757 31.1236 115.001 31.1236 115.236 31.1727C115.515 31.2242 115.782 31.3251 116.025 31.4707C116.431 31.7327 116.82 32.0187 117.191 32.3273C117.717 32.7498 118.331 33.2215 119.032 33.7425C119.733 34.2639 120.485 34.8102 121.287 35.3812C122.088 35.9527 122.915 36.4865 123.768 36.9827C125.536 38.0765 127.445 38.9284 129.444 39.5152C130.888 39.9261 132.377 40.1637 133.879 40.2229C134.957 40.273 136.037 40.147 137.074 39.8503C137.79 39.6288 138.492 39.3678 139.179 39.0683C140.231 38.6214 140.143 37.6654 138.916 36.2004C137.687 34.7364 135.119 32.7376 131.21 30.2042C129.121 28.936 127.244 27.3528 125.648 25.5115C124.47 24.1345 123.53 22.574 122.866 20.8933C122.341 19.5341 122.037 18.1011 121.964 16.6476C121.91 15.4554 121.935 14.2611 122.039 13.0722C122.289 10.5396 122.978 8.49126 124.106 6.92702C125.064 5.54349 126.216 4.302 127.527 3.23991C127.813 3.02202 128.045 2.74164 128.203 2.42056C128.276 2.22114 128.378 2.03302 128.504 1.86191C128.604 1.73861 128.792 1.7129 129.068 1.78742C129.343 1.86191 129.856 2.04814 130.609 2.34607C131.589 2.74214 132.594 3.07798 133.616 3.35164C135.069 3.77416 136.647 4.25832 138.352 4.80414C140.055 5.35126 141.721 5.92232 143.351 6.51734C144.693 6.9708 145.969 7.59688 147.147 8.37951C148.651 9.47243 149.615 10.3911 150.041 11.1355C150.467 11.8805 150.279 12.675 149.478 13.5191C149.063 13.9469 148.497 14.2003 147.899 14.2267C147.172 14.3007 146.439 14.2756 145.719 14.1523C144.988 14.0345 144.271 13.8474 143.577 13.5936C143.033 13.4117 142.515 13.1613 142.036 12.8487C141.384 12.4018 140.82 12.017 140.344 11.6942C139.873 11.3794 139.517 10.9222 139.329 10.3907C139.078 9.69588 138.777 9.41034 138.427 9.53406C137.881 9.75338 137.353 10.0149 136.849 10.3162C136.347 10.6642 135.733 11.0615 135.007 11.508C134.243 11.9848 133.548 12.561 132.94 13.2212C132.243 13.9844 131.672 14.8517 131.248 15.791C130.739 16.9554 130.47 18.2092 130.459 19.4783Z" fill="black"/>
<path d="M191.428 5.99618C191.96 7.16972 192.376 8.39207 192.668 9.64586C193.138 11.5544 193.452 13.4974 193.608 15.4558C193.813 17.8834 193.876 20.3208 193.795 22.7556C193.709 25.4748 193.37 28.1802 192.781 30.8374C192.158 33.659 191.264 36.4151 190.112 39.0682C188.907 41.8426 187.299 44.4274 185.338 46.7404C184.394 47.848 183.177 48.6947 181.805 49.1984C180.195 49.8162 178.494 50.1685 176.769 50.2413C174.834 50.3326 172.897 50.1444 171.018 49.6826C168.982 49.187 167.04 48.3696 165.267 47.2618C163.412 46.1702 161.909 44.3328 160.757 41.7497C159.537 38.9325 158.715 35.9624 158.313 32.923C157.828 29.469 157.639 25.9805 157.75 22.4949C157.836 18.9852 158.187 15.4869 158.802 12.0294C159.002 10.9378 158.977 10.1309 158.727 9.60862C158.508 9.12022 158.122 8.72446 157.637 8.49131C157.129 8.25697 156.601 8.06996 156.058 7.93266C155.504 7.79642 154.997 7.51317 154.592 7.1133C154.392 6.89097 154.227 6.63981 154.104 6.36843C153.931 6.04852 153.89 5.67455 153.991 5.32562C154.062 5.13245 154.177 4.95802 154.327 4.81594C154.477 4.67385 154.657 4.56791 154.855 4.50626C155.331 4.30848 156.095 4.28365 157.148 4.43177C158.764 4.59331 160.37 4.84198 161.959 5.17664C163.185 5.41778 164.34 5.92673 165.342 6.66638C166.29 7.42604 167.005 8.43183 167.409 9.57137C167.947 11.1807 168.214 12.8668 168.199 14.562C168.152 16.5273 167.925 18.4844 167.522 20.4092C167.071 22.7684 166.708 25.2885 166.432 27.9697C166.156 30.6929 166.131 33.4354 166.357 36.1632C166.557 38.8639 167.366 41.4856 168.725 43.8354C168.975 44.2823 169.526 44.4685 170.379 44.394C171.389 44.2782 172.377 44.0146 173.31 43.6119C174.497 43.1221 175.641 42.5365 176.731 41.8613C177.834 41.199 178.856 40.4116 179.775 39.5149C181.12 38.1291 182.157 36.4799 182.82 34.6733C183.614 32.6243 184.205 30.5039 184.586 28.3419C184.99 26.0776 185.229 23.7874 185.301 21.4891C185.376 19.1556 185.351 16.9955 185.225 15.0087C185.131 13.2991 184.943 11.5958 184.662 9.90638C184.41 8.49113 184.134 7.53514 183.835 7.03844C183.651 6.7179 183.45 6.40711 183.233 6.10736C183.025 5.82268 182.836 5.52403 182.669 5.21351C182.485 4.86597 182.371 4.48673 182.331 4.09621C182.285 3.56144 182.31 3.02296 182.406 2.49474C182.557 1.50202 183.02 1.142 183.797 1.41468C184.656 1.72976 185.476 2.14216 186.24 2.64371C187.393 3.23962 188.432 3.73621 189.36 4.13345C190.248 4.49579 190.979 5.15485 191.428 5.99618Z" fill="black"/>
<path d="M238.8 16.4988C239.017 17.6655 239.067 18.8564 238.95 20.037C238.829 21.7108 238.616 23.3769 238.311 25.0276C237.964 26.9253 237.512 28.8027 236.958 30.6514C236.396 32.5477 235.731 34.4126 234.966 36.2379C234.261 37.9358 233.406 39.5685 232.41 41.1168C231.602 42.4249 230.557 43.5739 229.328 44.5059C226.02 46.9396 222.976 48.4542 220.195 49.0496C217.413 49.6456 214.945 49.6704 212.79 49.1241C212.288 49.024 211.762 48.8998 211.211 48.7517C210.645 48.5972 210.092 48.398 209.557 48.1558C209.357 49.4465 209.156 50.6507 208.956 51.7684C208.755 52.8857 208.53 53.9409 208.28 54.9341C207.861 56.6663 207.534 58.4193 207.302 60.1856C207.051 62.0478 206.85 63.9224 206.701 65.8094C206.551 67.6959 206.45 69.5333 206.4 71.3214C206.35 73.1091 206.312 74.7106 206.287 76.1258C206.262 77.5411 206.249 78.7329 206.25 79.7012V81.5261C206.255 81.9769 206.306 82.426 206.4 82.8669C206.498 83.3321 206.524 83.8094 206.475 84.2822C206.422 84.7347 206.193 85.1488 205.836 85.4367C205.461 85.759 204.796 85.9453 203.844 85.9954C203.351 86.0208 202.857 85.9482 202.393 85.782C201.928 85.6157 201.501 85.359 201.138 85.027C200.305 84.2962 199.56 83.4712 198.92 82.569C198.284 81.6889 197.706 80.7683 197.191 79.813C196.866 79.1555 196.476 78.5317 196.026 77.9508C195.796 77.7085 195.606 77.432 195.462 77.1314C195.425 77.0353 195.409 76.9322 195.415 76.8294C195.422 76.7265 195.451 76.6263 195.5 76.5355C195.628 76.3001 195.793 76.0864 195.989 75.9024C196.283 75.5924 196.547 75.2558 196.778 74.8968C197.067 74.5221 197.272 74.0905 197.379 73.6307C197.481 73.0391 197.481 72.4347 197.379 71.843C197.34 70.6501 197.378 69.4559 197.492 68.2677C197.617 66.6289 197.83 64.3199 198.131 61.3404C198.18 60.5454 198.281 59.515 198.432 58.2492C198.582 56.983 198.758 55.5926 198.958 54.0779C199.158 52.5626 199.371 50.9611 199.597 49.2735C199.823 47.586 200.061 45.8976 200.311 44.2084C199.259 43.6626 198.707 43.2777 198.657 43.0538C198.607 42.8303 198.983 42.6193 199.785 42.4207C199.935 42.3719 200.21 42.2974 200.612 42.1972C200.962 39.7649 201.288 37.5551 201.589 35.5679C201.89 33.5824 202.14 32.1175 202.341 31.1732C202.508 29.9266 202.571 28.6684 202.529 27.4116C202.503 25.8473 202.415 24.2955 202.266 22.7561C202.115 21.2176 201.927 19.8272 201.702 18.5849C201.476 17.3443 201.213 16.5249 200.913 16.1268C200.661 15.8789 200.761 15.6555 201.213 15.4564C200.734 15.1777 200.303 14.8257 199.935 14.4136C198.883 13.272 198.47 12.3906 198.695 11.7693C198.921 11.1489 199.535 10.9627 200.537 11.2106C201.389 11.4097 202.002 11.5587 202.379 11.6576C202.669 11.7517 202.978 11.7773 203.281 11.7321C203.544 11.6635 203.789 11.5361 203.995 11.3596C204.245 11.1619 204.671 10.8391 205.273 10.3913C205.923 9.94435 207.013 9.27398 208.543 8.38014C210.199 7.42157 211.905 6.55131 213.655 5.7731C215.553 4.92234 217.513 4.21276 219.518 3.65022C221.304 3.10329 223.182 2.91341 225.043 3.09157C226.78 3.32157 228.439 3.94612 229.892 4.9165C231.45 5.91738 232.865 7.11979 234.102 8.49187C235.282 9.79215 236.315 11.2158 237.184 12.7376C237.889 13.9146 238.432 15.1795 238.8 16.4988ZM230.155 19.7763C230.354 18.8824 230.58 17.7775 230.831 16.4616C231.079 15.2603 231.117 14.026 230.944 12.8119C230.89 12.3164 230.735 11.8366 230.49 11.4015C230.245 10.9664 229.913 10.5848 229.516 10.2794C228.738 9.70917 227.448 9.7216 225.644 10.3166C223.84 10.9125 222.124 11.5332 220.495 12.1788C218.866 12.8248 217.388 13.4207 216.06 13.9665C214.731 14.5135 213.591 14.9729 212.639 15.3445C211.965 15.6371 211.259 15.8494 210.535 15.9774C209.181 16.1765 207.853 16.3255 206.55 16.4244C206.97 16.8439 207.359 17.2919 207.716 17.7651C208.091 18.2621 208.48 18.8332 208.881 19.4783C209.463 20.5497 209.869 21.7064 210.083 22.9047C210.406 24.5265 210.607 26.1697 210.685 27.8209C210.785 29.6586 210.823 31.6325 210.798 33.7426C210.772 35.8539 210.684 37.9768 210.535 40.1112C210.955 40.0089 211.382 39.9342 211.812 39.8878C212.263 39.839 212.739 39.7893 213.241 39.7388C216.047 39.4408 218.402 38.7332 220.307 37.6159C222.186 36.5215 223.802 35.0345 225.043 33.2584C226.343 31.3747 227.368 29.3184 228.087 27.1505C228.903 24.7289 229.593 22.2677 230.155 19.7763Z" fill="black"/>
<path d="M6.27683 61.7125C5.95213 61.6007 5.61137 61.5415 5.26763 61.5371C4.82738 61.5134 4.39524 61.6614 4.06373 61.9494C3.76744 62.2262 3.57409 62.5939 3.51497 62.9931V69.1333H2.09851V60.3617H3.09005L3.35579 61.4319H3.42664C3.62088 61.0681 3.89636 60.7531 4.23212 60.5109C4.58686 60.2825 5.0045 60.169 5.42719 60.1863C5.81699 60.1934 6.20396 60.2524 6.5779 60.3617L6.27683 61.7125Z" fill="black"/>
<path d="M18.1213 68.4318C17.722 68.7354 17.2685 68.9615 16.7845 69.0985C16.2306 69.2645 15.6547 69.3472 15.076 69.3439C14.4754 69.3577 13.8785 69.2472 13.3234 69.0195C12.8441 68.8157 12.424 68.496 12.1016 68.0898C11.7695 67.6595 11.5287 67.1671 11.3935 66.6423C11.2328 66.0236 11.1554 65.3865 11.1633 64.7477C11.1633 63.2507 11.4997 62.1103 12.1725 61.3267C12.5328 60.9277 12.9796 60.6148 13.4794 60.4113C13.9792 60.2077 14.519 60.1189 15.0584 60.1515C15.4633 60.1519 15.867 60.196 16.2623 60.2829C16.6773 60.3666 17.0647 60.5515 17.3893 60.8211C17.7139 61.0907 17.9656 61.4364 18.1213 61.8267C18.3429 62.3937 18.4453 62.9997 18.4222 63.6073C18.4187 64.0363 18.3832 64.4644 18.316 64.8881H12.6327C12.6263 65.3491 12.6799 65.809 12.7921 66.2564C12.8832 66.6237 13.0522 66.9676 13.2879 67.2652C13.5206 67.5465 13.8222 67.7639 14.164 67.8966C14.5852 68.0536 15.0334 68.1281 15.4833 68.116C15.8938 68.1144 16.301 68.0431 16.6872 67.9054C17.0186 67.804 17.3259 67.6369 17.5902 67.4143L18.1213 68.4318ZM15.076 61.3794C14.4697 61.3493 13.8736 61.5431 13.4031 61.9233C12.9838 62.2859 12.733 62.9057 12.6506 63.7829H17.0413C17.0413 62.8941 16.8701 62.2712 16.5278 61.9144C16.337 61.7296 16.1092 61.5865 15.8592 61.4943C15.6091 61.4021 15.3423 61.3629 15.076 61.3792V61.3794Z" fill="black"/>
<path d="M28.089 66.7473C28.0976 66.5954 28.0735 66.4434 28.0186 66.3013C27.9636 66.1592 27.8791 66.0302 27.7703 65.9228C27.539 65.712 27.2724 65.5428 26.9825 65.4228C26.6696 65.2885 26.3273 65.1598 25.9556 65.0367C25.5957 64.9195 25.251 64.7606 24.9287 64.5632C24.6169 64.3713 24.3486 64.1174 24.1407 63.8176C23.9108 63.4499 23.7996 63.0214 23.8222 62.5895C23.7923 62.2465 23.8422 61.9014 23.968 61.5805C24.0938 61.2597 24.2923 60.9717 24.548 60.7386C25.1313 60.3161 25.8451 60.1083 26.5664 60.1511C27.1054 60.1404 27.6437 60.1963 28.1687 60.3176C28.5553 60.4134 28.9318 60.5455 29.2929 60.7124L28.9565 61.8703C28.6404 61.7261 28.3115 61.6118 27.9738 61.5284C27.5718 61.4268 27.1583 61.3765 26.7434 61.379C26.3446 61.3486 25.9459 61.4405 25.6015 61.6422C25.4712 61.7539 25.3701 61.8952 25.3069 62.0541C25.2436 62.213 25.2201 62.3846 25.2385 62.5545C25.2316 62.6893 25.2569 62.824 25.3123 62.9474C25.3677 63.0708 25.4515 63.1795 25.5572 63.2649C25.798 63.4513 26.0629 63.6049 26.345 63.7213C26.6577 63.8559 27 63.9873 27.3719 64.1159C27.7351 64.2402 28.0804 64.4113 28.3987 64.6246C28.7124 64.836 28.9803 65.1074 29.1867 65.4228C29.4157 65.8069 29.5264 66.249 29.5053 66.6946C29.5081 67.0537 29.4451 67.4105 29.3194 67.7473C29.1989 68.0698 29.0014 68.3587 28.744 68.5894C28.463 68.8357 28.1349 69.0236 27.7791 69.1419C27.3424 69.2844 26.8844 69.3526 26.4247 69.3436C25.8462 69.3547 25.2687 69.2898 24.7074 69.1506C24.2952 69.0454 23.897 68.8924 23.5211 68.6946L23.946 67.5017C24.2834 67.6804 24.6398 67.8216 25.0084 67.9227C25.4392 68.0506 25.8864 68.1155 26.3362 68.1156C26.7749 68.1327 27.2099 68.0294 27.5933 67.8173C27.7657 67.6999 27.9029 67.5385 27.9902 67.3501C28.0775 67.1617 28.1116 66.9534 28.089 66.7473Z" fill="black"/>
<path d="M41.6507 68.4318C41.2514 68.7354 40.7979 68.9615 40.314 69.0985C39.76 69.2645 39.1841 69.3472 38.6055 69.3439C38.0048 69.3577 37.4079 69.2472 36.8528 69.0195C36.3735 68.8157 35.9534 68.496 35.631 68.0898C35.299 67.6595 35.0581 67.1671 34.9229 66.6423C34.7622 66.0236 34.6848 65.3865 34.6927 64.7477C34.6927 63.2507 35.0291 62.1103 35.7019 61.3267C36.0622 60.9277 36.509 60.6148 37.0088 60.4113C37.5086 60.2077 38.0484 60.1189 38.5878 60.1515C38.9927 60.1519 39.3964 60.196 39.7917 60.2829C40.2068 60.3666 40.5941 60.5515 40.9187 60.8211C41.2434 61.0907 41.4949 61.4364 41.6505 61.8267C41.8721 62.3937 41.9745 62.9997 41.9514 63.6073C41.948 64.0363 41.9125 64.4644 41.8452 64.8881H36.1621C36.1557 65.3491 36.2093 65.809 36.3215 66.2564C36.4126 66.6237 36.5816 66.9676 36.8173 67.2652C37.0501 67.5465 37.3518 67.7639 37.6936 67.8966C38.1149 68.0536 38.5628 68.1281 39.0127 68.116C39.4232 68.1144 39.8304 68.0431 40.2166 67.9054C40.5481 67.804 40.8553 67.6369 41.1196 67.4143L41.6507 68.4318ZM38.6055 61.3794C37.9991 61.3493 37.403 61.5431 36.9325 61.9233C36.5132 62.2859 36.2624 62.9057 36.18 63.7829H40.5707C40.5707 62.8941 40.3995 62.2712 40.0572 61.9144C39.8665 61.7296 39.6386 61.5865 39.3886 61.4943C39.1385 61.4021 38.8718 61.3629 38.6055 61.3792V61.3794Z" fill="black"/>
<path d="M47.5818 61.0107C48.0673 60.7275 48.5969 60.5259 49.1489 60.4142C49.7628 60.2836 50.3888 60.2189 51.0166 60.2211C51.5211 60.2018 52.0243 60.2854 52.4949 60.4667C52.83 60.6026 53.1231 60.8235 53.3447 61.1071C53.5371 61.3649 53.67 61.6613 53.7343 61.9754C53.7987 62.2872 53.8313 62.6045 53.8317 62.9227C53.8317 63.6245 53.8139 64.3087 53.7785 64.9754C53.7431 65.6421 53.7254 66.2736 53.7255 66.87C53.7255 67.3028 53.7432 67.7122 53.7785 68.0981C53.8094 68.46 53.8746 68.8182 53.9732 69.1681H52.9288L52.5569 67.94H52.4684C52.3534 68.1145 52.2198 68.2762 52.07 68.4225C51.899 68.5888 51.7053 68.7305 51.4945 68.8435C51.2477 68.9753 50.9863 69.0783 50.7155 69.1504C50.3863 69.2365 50.0468 69.2779 49.7063 69.2733C49.3476 69.2764 48.991 69.217 48.653 69.0979C48.3415 68.989 48.0555 68.819 47.812 68.5979C47.5736 68.3786 47.3837 68.1128 47.2544 67.8171C47.1139 67.4901 47.0445 67.1374 47.0507 66.7821C47.0343 66.3314 47.1447 65.885 47.3694 65.4927C47.587 65.143 47.8958 64.8582 48.2634 64.6681C48.6963 64.4476 49.1629 64.2995 49.6445 64.2296C50.233 64.138 50.828 64.0939 51.4237 64.098H51.9106C52.0736 64.0983 52.2363 64.1101 52.3976 64.1331C52.4329 63.7823 52.4506 63.4665 52.4507 63.1857C52.5014 62.7025 52.3619 62.2185 52.0612 61.8348C51.8014 61.5779 51.3292 61.4493 50.6447 61.449C50.4286 61.4501 50.2127 61.4652 49.9986 61.4943C49.7683 61.5244 49.5323 61.5665 49.2904 61.6205C49.0564 61.6725 48.8258 61.7387 48.6 61.8188C48.4005 61.8883 48.208 61.9758 48.0247 62.0803L47.5818 61.0107ZM50.0959 68.0454C50.3963 68.05 50.6955 68.0056 50.9813 67.9139C51.2209 67.8362 51.4476 67.7238 51.6541 67.5806C51.8326 67.456 51.9909 67.3051 52.1234 67.1331C52.2363 66.9885 52.3286 66.8291 52.3977 66.6596V65.2033C52.2324 65.192 52.0642 65.1832 51.8931 65.1771C51.7219 65.1713 51.5537 65.1684 51.3885 65.1683C51.0306 65.1679 50.6729 65.1884 50.3173 65.2298C50.0012 65.2628 49.6914 65.3395 49.3968 65.4577C49.1498 65.5557 48.9308 65.7123 48.7593 65.9139C48.5952 66.1209 48.5105 66.3789 48.5203 66.6419C48.5149 66.8319 48.5517 67.0208 48.6282 67.1951C48.7047 67.3695 48.8189 67.5249 48.9629 67.6506C49.276 67.9205 49.6813 68.0617 50.0959 68.0454Z" fill="black"/>
<path d="M64.2243 61.7125C63.8996 61.6007 63.5589 61.5414 63.2151 61.5371C62.7749 61.5134 62.3427 61.6614 62.0112 61.9494C61.7149 62.2262 61.5216 62.5939 61.4625 62.9931V69.1333H60.046V60.3617H61.0376L61.3031 61.4319H61.374C61.5682 61.0681 61.8437 60.7531 62.1794 60.5109C62.5342 60.2825 62.9518 60.169 63.3745 60.1863C63.7643 60.1934 64.1515 60.2524 64.5254 60.3617L64.2243 61.7125Z" fill="black"/>
<path d="M75.6437 68.5542C75.264 68.8237 74.8381 69.0229 74.3867 69.1419C73.8908 69.2778 73.3785 69.3457 72.864 69.3436C72.2688 69.3609 71.6769 69.2502 71.129 69.0192C70.6687 68.8123 70.2695 68.4922 69.9693 68.0894C69.6533 67.6531 69.4305 67.1576 69.3143 66.6332C69.1728 66.0145 69.1044 65.3817 69.1106 64.7474C69.1106 63.2623 69.4411 62.1249 70.1022 61.3353C70.4537 60.9345 70.8937 60.6192 71.388 60.4139C71.8823 60.2086 72.4176 60.1186 72.9525 60.1512C73.4369 60.1433 73.9207 60.1874 74.3955 60.2826C74.7675 60.3621 75.1275 60.4889 75.4667 60.6599L75.0595 61.8703C74.775 61.7132 74.4716 61.5923 74.1564 61.5107C73.8097 61.4209 73.4526 61.3767 73.0942 61.3791C71.4181 61.3791 70.58 62.5018 70.5801 64.7474C70.5783 65.1748 70.6228 65.6012 70.7129 66.0192C70.792 66.4001 70.9421 66.763 71.1555 67.0894C71.3621 67.3996 71.6416 67.6555 71.97 67.835C72.3547 68.0335 72.7846 68.1301 73.2181 68.1156C73.6075 68.1218 73.9948 68.0564 74.3602 67.9227C74.6546 67.8168 74.9319 67.6691 75.1835 67.4842L75.6437 68.5542Z" fill="black"/>
<path d="M86.8152 69.1333V64.1336C86.8189 63.7316 86.7922 63.3298 86.7355 62.9317C86.6969 62.6288 86.5975 62.3365 86.4433 62.0721C86.306 61.8482 86.1062 61.6685 85.868 61.5546C85.5695 61.4267 85.2458 61.3668 84.9208 61.3792C84.3714 61.3773 83.8387 61.5666 83.4159 61.9142C82.9743 62.2598 82.6676 62.7466 82.5483 63.2915V69.1333H81.1321V56.853H82.5483V61.3442H82.619C82.9243 60.983 83.3008 60.6875 83.7256 60.4757C84.2266 60.2446 84.7755 60.1335 85.3279 60.1513C85.7646 60.1434 86.2001 60.1995 86.6203 60.3178C86.9753 60.4221 87.2921 60.6264 87.5322 60.9057C87.7977 61.2356 87.9797 61.6234 88.0633 62.0371C88.1871 62.6284 88.2435 63.2315 88.2315 63.8353V69.1333H86.8152Z" fill="black"/>
<path d="M99.2616 63.6773C99.2571 63.3372 99.3234 62.9998 99.4563 62.6862C99.5791 62.3982 99.7565 62.1362 99.9787 61.9142C100.201 61.6957 100.466 61.5254 100.758 61.4142C101.065 61.2961 101.393 61.2366 101.723 61.2388C102.052 61.2365 102.378 61.293 102.687 61.4054C102.978 61.5105 103.244 61.6748 103.466 61.8879C103.69 62.1057 103.867 62.365 103.989 62.651C104.248 63.311 104.248 64.0435 103.989 64.7035C103.867 64.9896 103.69 65.2491 103.466 65.4668C103.244 65.68 102.978 65.8443 102.687 65.9491C102.064 66.1713 101.381 66.1713 100.758 65.9491C100.467 65.8444 100.201 65.68 99.9787 65.4668C99.7553 65.2492 99.5777 64.9897 99.4563 64.7035C99.3211 64.3783 99.2549 64.029 99.2616 63.6773Z" fill="#F86C59"/>
<path d="M119.25 66.7473C119.259 66.5954 119.235 66.4434 119.18 66.3013C119.125 66.1592 119.04 66.0302 118.932 65.9228C118.7 65.712 118.434 65.5428 118.144 65.4228C117.831 65.2885 117.488 65.1598 117.117 65.0367C116.757 64.9195 116.412 64.7606 116.09 64.5632C115.778 64.3713 115.51 64.1174 115.302 63.8176C115.072 63.4499 114.961 63.0214 114.983 62.5895C114.954 62.2465 115.003 61.9014 115.129 61.5805C115.255 61.2597 115.454 60.9717 115.709 60.7387C116.293 60.3161 117.006 60.1083 117.728 60.1511C118.267 60.1404 118.805 60.1963 119.33 60.3176C119.717 60.4134 120.093 60.5455 120.454 60.7124L120.118 61.8703C119.802 61.7261 119.473 61.6118 119.135 61.5284C118.733 61.4268 118.32 61.3765 117.905 61.3791C117.506 61.3486 117.107 61.4405 116.763 61.6422C116.632 61.7539 116.531 61.8952 116.468 62.0541C116.405 62.213 116.381 62.3846 116.4 62.5545C116.393 62.6893 116.418 62.824 116.474 62.9474C116.529 63.0708 116.613 63.1795 116.718 63.2649C116.959 63.4513 117.224 63.6049 117.506 63.7213C117.819 63.8559 118.161 63.9873 118.533 64.1159C118.896 64.2402 119.242 64.4113 119.56 64.6246C119.874 64.836 120.142 65.1074 120.348 65.4228C120.577 65.8069 120.688 66.249 120.667 66.6946C120.669 67.0537 120.606 67.4105 120.481 67.7473C120.36 68.0698 120.163 68.3587 119.905 68.5894C119.624 68.8358 119.296 69.0237 118.94 69.1419C118.504 69.2845 118.046 69.3527 117.586 69.3436C117.007 69.3547 116.43 69.2898 115.869 69.1507C115.456 69.0455 115.058 68.8924 114.682 68.6946L115.107 67.5017C115.445 67.6804 115.801 67.8216 116.169 67.9227C116.6 68.0506 117.048 68.1156 117.497 68.1157C117.936 68.1327 118.371 68.0295 118.755 67.8173C118.927 67.6999 119.064 67.5385 119.151 67.3501C119.239 67.1617 119.273 66.9534 119.25 66.7473Z" fill="black"/>
<path d="M127.624 60.3618V65.3616C127.621 65.7636 127.647 66.1653 127.704 66.5634C127.743 66.864 127.836 67.1552 127.978 67.423C128.1 67.6434 128.285 67.8234 128.51 67.9405C128.774 68.0663 129.066 68.1265 129.359 68.1159C129.65 68.1211 129.939 68.0704 130.209 67.9668C130.454 67.8696 130.679 67.73 130.873 67.5545C131.071 67.376 131.243 67.1725 131.387 66.9493C131.534 66.7206 131.656 66.4764 131.75 66.2212V60.3618H133.166V66.6422C133.166 67.0633 133.181 67.4989 133.21 67.9493C133.233 68.3469 133.283 68.7426 133.361 69.1334H132.387L132.033 67.7476H131.944C131.671 68.2056 131.295 68.5957 130.847 68.888C130.321 69.2098 129.711 69.3686 129.094 69.344C128.672 69.3509 128.251 69.2948 127.846 69.1775C127.494 69.0718 127.18 68.8678 126.943 68.5898C126.676 68.2587 126.488 67.8717 126.394 67.4582C126.257 66.8688 126.195 66.2648 126.208 65.6601V60.3618H127.624Z" fill="black"/>
<path d="M139.433 60.3618H140.407L140.673 61.4145H140.743C141.004 61.0146 141.368 60.6907 141.797 60.476C142.257 60.2532 142.764 60.142 143.275 60.1516C144.456 60.1516 145.335 60.4966 145.913 61.1866C146.492 61.8766 146.781 63.0052 146.781 64.5724C146.79 65.2472 146.692 65.9193 146.489 66.5636C146.317 67.1125 146.037 67.6223 145.665 68.0634C145.315 68.4705 144.876 68.7943 144.382 69.0109C143.854 69.2381 143.284 69.3517 142.709 69.344C142.362 69.3514 142.015 69.325 141.673 69.2652C141.39 69.203 141.114 69.1119 140.85 68.9932V72.6423H139.433V60.3618ZM143.01 61.3793C142.492 61.3507 141.983 61.5168 141.584 61.8443C141.197 62.2273 140.94 62.7212 140.85 63.2564V67.6072C141.068 67.7738 141.313 67.9014 141.576 67.9842C141.927 68.0824 142.291 68.1268 142.656 68.1159C143.028 68.1295 143.398 68.0545 143.736 67.8973C144.073 67.7401 144.367 67.5053 144.594 67.2124C145.072 66.6102 145.311 65.7243 145.311 64.5547C145.315 64.116 145.274 63.678 145.188 63.2476C145.119 62.8924 144.984 62.5532 144.789 62.2476C144.612 61.9782 144.368 61.7578 144.081 61.6074C143.748 61.4456 143.38 61.3673 143.01 61.3791V61.3793Z" fill="black"/>
<path d="M152.552 60.3618H153.526L153.791 61.4145H153.863C154.123 61.0147 154.487 60.6908 154.916 60.476C155.376 60.2531 155.882 60.142 156.394 60.1516C157.574 60.1516 158.453 60.4966 159.032 61.1866C159.61 61.8767 159.899 63.0053 159.9 64.5724C159.909 65.2472 159.81 65.9193 159.608 66.5636C159.436 67.1125 159.156 67.6223 158.784 68.0634C158.434 68.4705 157.995 68.7942 157.501 69.0109C156.973 69.2381 156.403 69.3517 155.828 69.344C155.481 69.3514 155.134 69.325 154.792 69.2652C154.509 69.2031 154.233 69.1119 153.969 68.9932V72.6423H152.552V60.3618ZM156.129 61.3793C155.611 61.3507 155.102 61.5168 154.703 61.8443C154.316 62.2274 154.059 62.7212 153.969 63.2564V67.6072C154.187 67.7738 154.432 67.9014 154.695 67.9842C155.046 68.0824 155.41 68.1268 155.775 68.1159C156.147 68.1295 156.517 68.0546 156.855 67.8975C157.192 67.7403 157.486 67.5053 157.713 67.2124C158.191 66.6102 158.43 65.7243 158.43 64.5547C158.434 64.1159 158.393 63.678 158.306 63.2476C158.238 62.8924 158.103 62.5532 157.908 62.2476C157.731 61.9781 157.487 61.7578 157.2 61.6074C156.867 61.4456 156.499 61.3672 156.129 61.3791V61.3793Z" fill="black"/>
<path d="M165.176 64.7476C165.176 63.2625 165.509 62.1251 166.176 61.3355C166.843 60.5459 167.802 60.1512 169.053 60.1513C169.645 60.1381 170.234 60.2486 170.78 60.4757C171.255 60.6816 171.672 61.001 171.992 61.4055C172.325 61.8384 172.566 62.3338 172.7 62.8617C172.86 63.4777 172.937 64.1117 172.931 64.7476C172.931 66.233 172.597 67.3704 171.93 68.1596C171.263 68.9489 170.304 69.3436 169.053 69.3438C168.461 69.3571 167.873 69.2466 167.327 69.0194C166.851 68.8138 166.434 68.4943 166.114 68.0896C165.781 67.6568 165.54 67.1613 165.406 66.6334C165.246 66.0174 165.169 65.3834 165.176 64.7476ZM166.645 64.7476C166.644 65.1779 166.688 65.6072 166.778 66.0282C166.854 66.4058 166.995 66.7678 167.194 67.0984C167.379 67.3991 167.634 67.6517 167.938 67.8352C168.276 68.0304 168.662 68.1277 169.053 68.1159C170.658 68.1276 171.461 67.0048 171.461 64.7476C171.463 64.3114 171.419 63.8763 171.328 63.4494C171.252 63.0718 171.111 62.7099 170.912 62.3792C170.728 62.0799 170.473 61.8299 170.168 61.6511C169.829 61.4616 169.443 61.3676 169.053 61.3793C167.448 61.3676 166.645 62.4904 166.645 64.7476Z" fill="black"/>
<path d="M182.881 61.7125C182.556 61.6007 182.215 61.5415 181.871 61.5371C181.431 61.5133 180.999 61.6613 180.668 61.9494C180.371 62.2262 180.178 62.5939 180.118 62.9931V69.1333H178.702V60.3617H179.693L179.959 61.4319H180.03C180.224 61.0682 180.5 60.7532 180.835 60.5109C181.19 60.2825 181.608 60.1691 182.031 60.1863C182.42 60.1934 182.807 60.2524 183.181 60.3617L182.881 61.7125Z" fill="black"/>
<path d="M187.625 60.3618H189.006V58.6249L190.423 58.2216V60.3618H192.831V61.5899H190.423V66.4492C190.389 66.8913 190.468 67.3347 190.653 67.7386C190.736 67.866 190.852 67.9685 190.989 68.035C191.127 68.1015 191.28 68.1295 191.432 68.1158C191.695 68.1216 191.957 68.0891 192.211 68.0194C192.423 67.9551 192.659 67.8703 192.919 67.765L193.238 68.835C192.903 68.9928 192.553 69.1163 192.193 69.2035C191.793 69.2996 191.383 69.3467 190.972 69.3438C190.251 69.3438 189.744 69.142 189.449 68.7385C189.154 68.3351 189.006 67.6597 189.006 66.7123V61.5899H187.625L187.625 60.3618Z" fill="black"/>
</g>
<defs>
<clipPath id="clip0">
<rect width="239" height="86" fill="white"/>
</clipPath>
</defs>
</svg>
